<?xml version="1.0" standalone="no"?>
<!DOCTYPE svg PUBLIC "-//W3C//DTD SVG 20010904//EN"
 "http://www.w3.org/TR/2001/REC-SVG-20010904/DTD/svg10.dtd">
<svg version="1.0" xmlns="http://www.w3.org/2000/svg"
 width="800.000000pt" height="800.000000pt" viewBox="0 0 800.000000 800.000000"
 preserveAspectRatio="xMidYMid meet">

<g transform="translate(0.000000,800.000000) scale(0.100000,-0.100000)"
fill="#000000" stroke="none">
<path d="M2080 6535 l0 -125 190 0 190 0 0 -845 0 -845 130 0 130 0 0 970 0
970 -320 0 -320 0 0 -125z"/>
<path d="M3661 6645 c-200 -45 -353 -127 -492 -265 -128 -127 -218 -283 -261
-456 -31 -125 -31 -352 0 -467 44 -162 121 -301 234 -421 136 -146 304 -242
505 -288 97 -22 104 -22 1121 -25 l1022 -4 0 126 0 125 -157 0 c-87 0 -536 1
-998 3 -811 3 -843 4 -932 24 -270 62 -477 260 -543 519 -25 96 -27 251 -4
343 62 255 264 459 524 528 88 23 263 23 350 -1 295 -81 495 -319 535 -638 l6
-48 125 0 124 0 0 50 c0 69 -25 185 -61 285 -45 123 -119 236 -223 341 -132
132 -267 209 -451 260 -84 23 -338 28 -424 9z"/>
<path d="M5289 6641 c-75 -24 -121 -85 -121 -160 0 -201 287 -234 332 -38 15
70 -16 144 -76 179 -36 21 -100 30 -135 19z m119 -41 c90 -55 95 -163 12 -234
-25 -21 -42 -26 -85 -26 -43 0 -60 5 -85 26 -44 38 -63 80 -57 126 14 105 127
161 215 108z"/>
<path d="M5280 6480 c0 -64 3 -80 15 -80 10 0 15 11 15 35 0 27 4 35 18 35 25
0 42 -19 42 -47 0 -14 6 -23 15 -23 17 0 21 55 5 65 -7 4 -5 14 4 27 15 21 11
47 -8 60 -6 4 -32 8 -58 8 l-48 0 0 -80z m93 48 c8 -24 -5 -38 -34 -38 -24 0
-29 4 -29 25 0 21 5 25 29 25 16 0 31 -6 34 -12z"/>
<path d="M1800 6155 l0 -125 140 0 140 0 0 -655 0 -655 125 0 125 0 -2 778 -3
777 -262 3 -263 2 0 -125z"/>
<path d="M3752 6239 c-204 -36 -384 -203 -437 -404 -19 -76 -19 -204 0 -279
52 -198 214 -353 420 -403 63 -15 176 -17 1063 -20 l992 -4 0 125 0 126 -957
0 c-545 0 -983 4 -1015 10 -120 19 -199 77 -246 179 -68 146 -5 322 142 399
70 37 198 39 267 4 87 -43 160 -139 175 -231 l7 -42 121 3 121 3 -3 35 c-17
216 -176 417 -379 480 -77 24 -198 32 -271 19z"/>
<path d="M2267 4391 c4 -15 -5 -20 -55 -30 -98 -19 -142 -70 -142 -163 0 -87
57 -147 150 -158 41 -5 45 -7 45 -32 -1 -27 1 -28 56 -28 55 0 58 1 61 27 3
25 8 29 52 35 53 7 88 28 120 71 27 37 27 137 -1 175 -30 41 -77 69 -128 76
-36 6 -45 11 -45 27 0 17 -7 19 -59 19 -53 0 -59 -2 -54 -19z m3 -191 c0 -72
-2 -80 -19 -80 -10 0 -29 9 -42 19 -48 39 -21 141 38 141 22 0 23 -3 23 -80z
m167 58 c46 -43 16 -138 -44 -138 -22 0 -23 3 -23 80 0 76 1 80 22 80 12 0 32
-10 45 -22z"/>
<path d="M5233 4384 c-48 -24 -100 -87 -114 -136 -26 -98 18 -211 100 -255 49
-26 141 -32 186 -11 22 10 25 17 25 66 l0 54 -25 -16 c-13 -9 -45 -16 -70 -16
-38 0 -52 5 -76 29 -47 47 -39 140 15 183 30 25 97 23 130 -3 l26 -20 0 56 c0
55 -1 56 -35 71 -45 19 -122 18 -162 -2z"/>
<path d="M2610 4185 l0 -206 62 3 62 3 75 119 76 118 3 -121 3 -121 54 0 55 0
0 205 0 205 -57 0 -58 -1 -75 -119 c-41 -65 -77 -119 -80 -120 -3 0 -4 54 -2
120 l3 120 -60 0 -61 0 0 -205z"/>
<path d="M3060 4185 l0 -205 58 0 58 0 -4 63 -4 64 61 6 c77 8 116 28 137 70
22 41 22 108 0 142 -35 53 -70 65 -193 65 l-113 0 0 -205z m194 99 c21 -21 20
-40 -5 -65 -13 -13 -30 -19 -47 -17 -23 2 -28 9 -30 36 -2 19 -1 40 2 48 7 19
61 18 80 -2z"/>
<path d="M3450 4383 c0 -9 -48 -336 -55 -375 -4 -28 -4 -28 49 -28 62 0 57
-10 77 140 6 47 12 86 13 87 1 1 17 -49 35 -112 l33 -115 38 0 c38 0 39 0 55
58 29 101 54 177 55 167 0 -5 7 -55 15 -110 8 -55 15 -103 15 -107 0 -5 25 -8
55 -8 l56 0 -6 33 c-5 31 -55 370 -55 375 0 1 -26 2 -58 2 l-59 0 -33 -120
c-18 -66 -36 -120 -39 -120 -3 0 -21 54 -40 120 l-33 120 -59 0 c-33 0 -59 -3
-59 -7z"/>
<path d="M4005 4198 c-38 -106 -70 -199 -73 -206 -3 -10 10 -12 59 -10 62 3
63 4 71 36 l9 32 73 0 73 0 9 -32 c9 -32 11 -33 72 -36 l61 -3 -55 158 c-31
87 -63 179 -72 206 l-16 47 -71 0 -72 0 -68 -192z m181 -40 c5 -15 -1 -18 -40
-18 -25 0 -46 3 -46 6 0 4 10 39 22 78 l21 71 19 -60 c10 -33 21 -68 24 -77z"/>
<path d="M4560 4304 c-22 -48 -40 -88 -40 -90 0 -2 22 -4 49 -4 l49 0 30 90
31 90 -39 0 -39 0 -41 -86z"/>
<path d="M4700 4310 c-22 -44 -40 -84 -40 -90 0 -5 21 -10 48 -10 l47 0 31 90
30 90 -38 0 c-37 0 -38 -1 -78 -80z"/>
<path d="M4880 4345 c0 -43 1 -45 30 -45 l30 0 0 -160 0 -160 55 0 55 0 0 205
0 205 -85 0 -85 0 0 -45z"/>
<path d="M5555 4378 c-2 -7 -16 -45 -30 -84 -14 -39 -25 -74 -25 -78 0 -3 16
-6 35 -6 35 0 37 2 75 86 22 47 40 88 40 90 0 11 -91 3 -95 -8z"/>
<path d="M5667 4307 c-15 -46 -27 -86 -27 -90 0 -4 15 -7 33 -7 31 0 35 4 75
85 23 47 42 87 42 90 0 3 -22 5 -48 5 l-48 0 -27 -83z"/>
<path d="M690 2375 l0 -205 50 0 50 0 0 165 0 165 35 0 35 0 0 -165 0 -165 45
0 45 0 0 205 0 205 -130 0 -130 0 0 -205z"/>
<path d="M1000 2375 l0 -205 45 0 45 0 0 65 0 65 30 0 c47 0 99 26 110 55 13
34 13 151 0 176 -19 34 -64 49 -150 49 l-80 0 0 -205z m145 65 c0 -53 -1 -55
-27 -58 -28 -3 -28 -3 -28 58 0 61 0 61 28 58 26 -3 27 -5 27 -58z"/>
<path d="M1325 2568 c-41 -24 -44 -38 -45 -194 0 -130 3 -155 18 -173 31 -39
140 -49 183 -18 33 25 39 55 39 197 l0 142 -29 29 c-26 25 -36 29 -88 29 -32
0 -67 -6 -78 -12z m93 -70 c19 -19 16 -232 -3 -248 -8 -7 -22 -10 -30 -6 -12
4 -15 28 -15 129 0 68 3 127 7 130 10 11 28 8 41 -5z"/>
<path d="M1570 2375 l0 -205 45 0 45 0 0 165 0 165 60 0 60 0 0 40 0 40 -105
0 -105 0 0 -205z"/>
<path d="M1830 2375 l0 -205 45 0 45 0 0 65 0 65 30 0 c42 0 96 24 109 48 14
26 14 157 1 183 -19 34 -64 49 -150 49 l-80 0 0 -205z m145 65 c0 -53 -1 -55
-27 -58 -28 -3 -28 -3 -28 58 0 61 0 61 28 58 26 -3 27 -5 27 -58z"/>
<path d="M2160 2571 c0 -5 -16 -92 -35 -194 -19 -102 -35 -190 -35 -196 0 -6
18 -11 44 -11 40 0 44 2 50 30 5 26 10 30 40 30 29 0 34 -4 40 -30 5 -28 8
-30 52 -30 45 0 46 1 41 28 -3 15 -20 107 -39 205 l-33 177 -62 0 c-35 0 -63
-4 -63 -9z m82 -231 c3 -30 0 -35 -21 -38 -22 -3 -23 -2 -16 40 3 24 9 57 12
73 l6 30 8 -35 c4 -19 9 -51 11 -70z"/>
<path d="M2400 2375 l0 -205 48 0 49 0 -3 108 -4 107 23 -85 22 -85 37 -3 c40
-3 39 -6 67 113 8 34 9 26 10 -57 l1 -98 45 0 45 0 0 205 0 205 -58 0 -58 0
-24 -100 c-13 -55 -27 -97 -30 -93 -4 5 -12 33 -19 64 -6 30 -16 72 -22 92
l-10 37 -59 0 -60 0 0 -205z"/>
<path d="M2800 2375 l0 -205 45 0 45 0 1 98 1 97 13 -50 c7 -27 16 -62 19 -77
6 -25 11 -28 45 -28 l39 0 20 83 21 82 -2 -102 -3 -103 48 0 48 0 0 205 0 205
-59 0 -59 0 -22 -92 c-13 -51 -26 -96 -29 -101 -4 -4 -18 38 -31 93 l-24 100
-58 0 -58 0 0 -205z"/>
<path d="M3200 2375 l0 -205 45 0 45 0 0 86 0 85 33 -3 32 -3 3 -82 3 -83 44
0 45 0 0 205 0 205 -45 0 -44 0 -3 -82 -3 -83 -32 -3 -33 -3 0 85 0 86 -45 0
-45 0 0 -205z"/>
<path d="M3533 2556 l-28 -24 -3 -149 c-3 -139 -2 -150 18 -176 37 -46 129
-57 187 -21 31 19 43 73 43 189 0 172 -21 205 -129 205 -49 0 -65 -4 -88 -24z
m115 -179 c2 -107 0 -128 -13 -133 -35 -14 -45 14 -45 130 0 114 8 140 40 134
12 -3 16 -26 18 -131z"/>
<path d="M3800 2375 l0 -205 105 0 105 0 0 35 0 35 -60 0 -60 0 0 50 0 50 50
0 50 0 0 40 0 40 -50 0 -50 0 0 40 0 40 60 0 60 0 0 40 0 40 -105 0 -105 0 0
-205z"/>
<path d="M4193 2556 l-28 -24 0 -156 c0 -145 1 -157 21 -176 44 -45 154 -45
198 0 19 18 21 35 24 142 4 144 -2 182 -33 214 -20 20 -34 24 -89 24 -54 0
-70 -4 -93 -24z m115 -179 c2 -109 0 -128 -13 -134 -30 -11 -40 16 -43 115 -4
107 8 155 36 150 15 -3 17 -19 20 -131z"/>
<path d="M4460 2374 l0 -206 96 4 c91 3 97 5 120 31 20 24 24 39 24 98 0 89
-17 124 -68 138 -20 6 -47 11 -59 11 -18 0 -23 6 -23 25 0 24 3 25 60 25 l60
0 0 40 0 40 -105 0 -105 0 0 -206z m146 -28 c3 -13 4 -38 2 -57 -2 -29 -7 -34
-30 -37 -28 -3 -28 -3 -28 57 0 58 1 61 25 61 18 0 26 -7 31 -24z"/>
<path d="M4760 2375 l0 -205 105 0 105 0 0 35 0 35 -60 0 -60 0 0 50 0 50 50
0 50 0 0 40 0 40 -50 0 -50 0 0 40 0 40 60 0 60 0 0 40 0 40 -105 0 -105 0 0
-205z"/>
<path d="M5065 2568 c-41 -24 -44 -38 -45 -194 0 -173 6 -188 75 -204 97 -22
165 19 165 99 0 30 -2 31 -44 31 -41 0 -44 -2 -50 -31 -5 -25 -10 -30 -28 -27
-22 3 -23 7 -26 131 -2 107 0 128 13 133 21 9 45 -14 45 -42 0 -22 4 -24 45
-24 l45 0 0 41 c0 31 -6 47 -29 70 -26 25 -36 29 -88 29 -32 0 -67 -6 -78 -12z"/>
<path d="M5310 2375 l0 -205 45 0 45 0 0 165 0 165 35 0 35 0 0 -165 0 -165
45 0 45 0 0 205 0 205 -125 0 -125 0 0 -205z"/>
<path d="M5610 2375 l0 -205 110 0 110 0 0 35 0 35 -60 0 -60 0 0 50 0 50 50
0 50 0 0 40 0 40 -50 0 -50 0 0 40 0 40 60 0 60 0 0 40 0 40 -110 0 -110 0 0
-205z"/>
<path d="M5880 2465 c0 -67 5 -125 12 -140 21 -45 85 -68 129 -45 18 10 19 7
19 -50 l0 -60 45 0 45 0 0 205 0 205 -45 0 -45 0 0 -110 c0 -93 -3 -112 -16
-117 -39 -15 -49 9 -52 121 l-3 106 -44 0 -45 0 0 -115z"/>
<path d="M6190 2375 l0 -205 105 0 105 0 0 35 0 34 -57 3 -58 3 -3 48 -3 47
50 0 51 0 0 40 0 40 -50 0 -50 0 0 40 0 40 60 0 60 0 0 40 0 40 -105 0 -105 0
0 -205z"/>
<path d="M6460 2375 l0 -205 45 0 45 0 0 85 0 85 35 0 35 0 0 -85 0 -85 45 0
45 0 0 205 0 205 -45 0 -44 0 -3 -82 -3 -83 -30 0 -30 0 -3 83 -3 82 -44 0
-45 0 0 -205z"/>
<path d="M6770 2375 l0 -205 53 0 53 0 36 103 37 102 0 -102 1 -103 45 0 45 0
0 205 0 205 -54 0 -54 0 -33 -97 c-36 -108 -44 -103 -37 19 l5 78 -49 0 -48 0
0 -205z"/>
<path d="M7090 2375 l0 -205 105 0 105 0 0 35 0 35 -60 0 -60 0 0 50 0 50 50
0 50 0 0 40 0 40 -50 0 -50 0 0 40 0 40 60 0 60 0 0 40 0 40 -105 0 -105 0 0
-205z"/>
<path d="M735 1976 c-47 -20 -55 -51 -55 -206 0 -132 1 -140 24 -166 20 -24
33 -28 88 -32 58 -4 67 -2 96 23 l32 27 0 150 c0 88 -4 158 -11 170 -23 42
-114 60 -174 34z m93 -190 c3 -128 -5 -154 -39 -135 -17 9 -19 22 -19 119 0
125 4 142 34 138 20 -3 21 -9 24 -122z"/>
<path d="M1384 1983 c-12 -2 -32 -15 -45 -29 -22 -24 -24 -35 -27 -148 -6
-194 16 -236 123 -236 56 0 97 20 113 55 16 34 16 275 1 309 -20 44 -88 64
-165 49z m80 -89 c3 -9 6 -62 6 -119 0 -108 -12 -141 -45 -129 -12 5 -15 30
-15 128 0 68 3 126 7 129 12 13 41 7 47 -9z"/>
<path d="M4204 1983 c-12 -2 -32 -15 -45 -29 -23 -24 -24 -32 -24 -168 0 -189
15 -216 121 -216 55 0 102 23 114 56 14 36 13 277 -1 308 -20 44 -88 64 -165
49z m80 -89 c3 -9 6 -62 6 -119 0 -108 -12 -141 -45 -129 -12 5 -15 30 -15
128 0 68 3 126 7 129 12 13 41 7 47 -9z"/>
<path d="M4754 1983 c-12 -2 -32 -15 -45 -29 -23 -24 -24 -32 -24 -168 0 -158
8 -186 56 -207 44 -18 136 -7 162 20 20 20 22 33 25 162 3 97 0 151 -9 171
-19 47 -85 67 -165 51z m80 -89 c3 -9 6 -62 6 -119 0 -108 -12 -141 -45 -129
-12 5 -15 30 -15 128 0 68 3 126 7 129 12 13 41 7 47 -9z"/>
<path d="M940 1946 c0 -33 2 -35 38 -38 l37 -3 3 -167 2 -168 45 0 45 0 0 170
0 170 35 0 c33 0 35 2 35 35 l0 35 -120 0 -120 0 0 -34z"/>
<path d="M1720 1965 c0 -10 -10 -15 -29 -15 -17 0 -42 -10 -58 -24 -28 -24
-28 -25 -28 -144 0 -135 7 -151 74 -173 20 -7 40 -18 44 -25 11 -19 86 -18 93
1 3 8 23 19 43 25 63 17 75 38 79 144 5 113 -8 160 -48 181 -16 8 -38 15 -50
15 -11 0 -20 7 -20 15 0 11 -12 15 -50 15 -38 0 -50 -4 -50 -15z m0 -192 c-1
-88 -2 -96 -15 -79 -15 20 -21 129 -9 160 15 39 24 8 24 -81z m120 8 c0 -50
-4 -93 -10 -96 -6 -4 -10 28 -10 89 0 57 4 96 10 96 6 0 10 -36 10 -89z"/>
<path d="M1990 1774 l0 -205 51 3 52 3 36 105 36 105 3 -108 3 -108 42 3 42 3
3 203 2 202 -58 0 -58 0 -31 -97 -31 -98 -1 98 -1 97 -45 0 -45 0 0 -206z"/>
<path d="M2300 1775 l0 -205 105 0 c98 0 105 -1 105 -20 0 -17 7 -20 45 -20
l45 0 0 60 c0 53 -2 60 -20 60 -19 0 -20 7 -20 165 l0 165 -50 0 -50 0 0 -166
0 -165 -32 3 -33 3 -3 163 -2 162 -45 0 -45 0 0 -205z"/>
<path d="M2630 1775 l0 -205 49 0 49 0 32 93 c18 50 37 97 43 102 5 6 8 -27 5
-90 l-3 -100 45 0 45 0 3 203 2 202 -58 0 -58 0 -31 -92 -31 -93 -1 93 -1 92
-45 0 -45 0 0 -205z"/>
<path d="M2985 1968 c-2 -7 -18 -89 -35 -183 -17 -93 -34 -180 -37 -193 -5
-22 -3 -23 43 -20 46 3 49 5 54 33 5 27 9 30 40 30 31 0 35 -3 40 -30 4 -25
10 -30 38 -33 62 -6 62 -10 21 205 -21 109 -39 199 -39 201 0 1 -27 2 -60 2
-40 0 -62 -4 -65 -12z m80 -200 c6 -54 5 -58 -14 -58 -23 0 -25 10 -15 84 8
59 20 48 29 -26z"/>
<path d="M3230 1826 c0 -124 -3 -158 -15 -170 -8 -8 -15 -31 -15 -50 0 -33 2
-36 29 -36 17 0 42 10 58 24 28 24 28 24 31 171 l3 146 32 -3 32 -3 3 -167 2
-168 45 0 45 0 0 205 0 205 -125 0 -125 0 0 -154z"/>
<path d="M3532 1778 l3 -203 87 0 c72 0 91 3 115 21 26 20 28 27 31 100 2 43
0 89 -3 101 -7 28 -53 53 -100 53 l-35 0 0 65 0 65 -50 0 -50 0 2 -202z m136
-7 c9 -5 12 -25 10 -62 -3 -47 -6 -54 -25 -57 -22 -3 -23 0 -23 62 0 67 7 77
38 57z"/>
<path d="M3830 1775 l0 -205 45 0 45 0 0 85 0 85 35 0 35 0 0 -85 0 -85 45 0
45 0 0 205 0 205 -45 0 -45 0 0 -80 0 -80 -35 0 -35 0 0 80 0 80 -45 0 -45 0
0 -205z"/>
<path d="M4430 1775 l0 -205 45 0 45 0 0 170 0 170 60 0 60 0 0 35 0 35 -105
0 -105 0 0 -205z"/>
<path d="M5090 1775 l0 -205 45 0 45 0 0 171 0 170 33 -3 32 -3 3 -167 2 -168
45 0 45 0 0 205 0 205 -125 0 -125 0 0 -205z"/>
<path d="M5406 1791 c-20 -104 -36 -196 -36 -205 0 -12 10 -16 45 -16 40 0 45
3 45 23 0 35 15 49 46 45 22 -2 30 -10 36 -35 8 -31 11 -33 54 -33 45 0 46 1
41 28 -3 15 -20 107 -38 205 l-33 177 -62 0 -61 0 -37 -189z m112 -23 c9 -57
9 -58 -15 -58 -23 0 -24 2 -18 43 10 70 19 103 22 87 1 -8 7 -41 11 -72z"/>
<path d="M5680 1775 l0 -205 45 0 44 0 3 68 3 67 35 3 c89 7 110 35 110 143 0
65 -2 73 -29 100 -28 28 -33 29 -120 29 l-91 0 0 -205z m138 123 c7 -7 12 -30
12 -53 0 -44 -13 -65 -42 -65 -15 0 -18 9 -18 58 0 32 3 62 7 65 10 11 28 8
41 -5z"/>
<path d="M5930 1945 c0 -34 1 -35 40 -35 l40 0 0 -170 0 -170 45 0 45 0 2 168
3 167 38 3 c35 3 37 5 37 38 l0 34 -125 0 -125 0 0 -35z"/>
<path d="M6210 1775 l0 -205 45 0 45 0 0 85 0 85 35 0 35 0 0 -85 0 -85 45 0
45 0 0 205 0 205 -45 0 -45 0 0 -80 0 -80 -35 0 -35 0 0 80 0 80 -45 0 -45 0
0 -205z"/>
<path d="M6522 1778 l3 -203 108 -3 107 -3 0 41 0 40 -60 0 -60 0 0 45 0 45
50 0 50 0 0 40 0 40 -50 0 -50 0 0 45 0 45 60 0 60 0 0 35 0 35 -110 0 -110 0
2 -202z"/>
<path d="M6790 1775 l0 -205 45 0 44 0 3 68 3 67 49 6 c74 8 96 39 96 135 0
70 -2 78 -29 105 -28 28 -33 29 -120 29 l-91 0 0 -205z m138 123 c7 -7 12 -30
12 -53 0 -44 -13 -65 -42 -65 -15 0 -18 9 -18 58 0 32 3 62 7 65 10 11 28 8
41 -5z"/>
<path d="M7120 1978 c0 -2 -16 -86 -35 -188 -19 -102 -35 -193 -35 -202 0 -15
9 -18 45 -18 40 0 45 3 45 23 0 35 15 49 46 45 22 -2 30 -10 36 -35 8 -31 11
-33 53 -33 l45 0 -6 38 c-3 20 -20 111 -38 202 l-31 165 -63 3 c-34 2 -62 2
-62 0z m78 -210 c9 -57 9 -58 -16 -58 -23 0 -24 2 -17 48 9 65 19 100 22 82 1
-8 7 -41 11 -72z"/>
<path d="M1090 1348 l0 -43 -45 0 c-33 0 -50 -6 -67 -23 -21 -21 -23 -31 -23
-142 0 -111 2 -121 23 -142 17 -17 34 -23 67 -23 l45 0 0 -47 0 -48 45 0 45 0
0 50 0 50 30 -6 c35 -8 87 11 100 37 13 23 13 235 0 258 -13 26 -65 45 -100
37 -30 -5 -30 -5 -30 39 l0 45 -45 0 -45 0 0 -42z m0 -209 c0 -88 -1 -90 -22
-87 -21 3 -23 9 -26 77 -3 87 0 101 28 101 19 0 20 -6 20 -91z m135 1 c0 -81
-1 -85 -22 -88 -22 -3 -23 -1 -23 81 0 87 4 100 30 95 12 -3 15 -19 15 -88z"/>
<path d="M3197 1365 c-15 -14 -35 -25 -43 -25 -9 0 -14 -11 -14 -36 0 -36 0
-37 35 -31 l35 6 0 -150 0 -149 45 0 45 0 0 205 0 205 -37 0 c-26 -1 -47 -9
-66 -25z"/>
<path d="M3379 1361 l-29 -29 0 -142 c0 -166 9 -193 68 -209 50 -14 76 -14
117 3 40 17 55 42 55 90 0 36 0 36 -44 36 -41 0 -45 -2 -48 -27 -3 -31 -35
-44 -49 -21 -15 23 -11 234 5 247 22 18 46 2 46 -30 0 -28 2 -29 45 -29 l45 0
0 43 c-1 70 -35 97 -125 97 -49 0 -60 -4 -86 -29z"/>
<path d="M4380 1185 l0 -205 45 0 44 0 3 80 c2 44 7 81 12 83 5 1 22 -35 39
-80 l30 -83 48 0 c27 0 49 2 49 5 0 2 -17 49 -37 102 l-36 98 30 85 c17 47 34
93 38 103 7 16 2 18 -45 15 l-52 -3 -30 -83 c-16 -45 -34 -80 -39 -76 -5 3 -9
41 -9 85 l0 79 -45 0 -45 0 0 -205z"/>
<path d="M1776 1303 c-3 -4 -29 -6 -56 -4 l-50 2 0 -210 0 -211 45 0 45 0 0
57 c0 44 3 54 12 45 25 -25 108 -2 122 33 11 31 6 239 -7 256 -25 32 -91 51
-111 32z m32 -160 c-3 -80 -5 -88 -23 -88 -18 0 -20 8 -23 74 -3 87 0 101 28
101 20 0 21 -5 18 -87z"/>
<path d="M4787 1303 c-4 -3 -32 -5 -62 -4 l-55 2 0 -210 0 -211 45 0 45 0 0
55 c0 51 10 69 25 45 8 -13 48 -13 78 1 37 17 47 50 47 159 0 109 -10 142 -47
159 -27 12 -66 15 -76 4z m31 -161 c2 -70 0 -83 -14 -89 -26 -10 -44 24 -44
81 0 75 9 98 34 94 19 -3 21 -10 24 -86z"/>
<path d="M5023 1304 c-31 -7 -63 -51 -63 -85 0 -28 2 -29 44 -29 36 0 45 4 49
21 9 32 41 20 45 -16 l3 -30 -55 0 c-74 0 -91 -17 -91 -90 0 -71 25 -99 87
-98 24 1 67 1 96 2 l52 0 0 135 c0 126 -2 137 -22 161 -18 20 -35 27 -73 29
-27 3 -60 2 -72 0z m75 -226 c-3 -25 -34 -36 -50 -20 -17 17 -1 42 27 42 22 0
26 -4 23 -22z"/>
<path d="M6074 1304 c-12 -3 -32 -16 -45 -30 -22 -24 -24 -34 -24 -135 0 -105
1 -109 28 -136 24 -25 35 -28 91 -28 54 0 68 4 90 24 18 17 26 35 26 58 0 32
-1 33 -44 33 -35 0 -45 -4 -49 -20 -6 -24 -42 -27 -51 -3 -10 25 4 33 77 45
l67 11 0 63 c0 84 -23 113 -95 118 -27 3 -60 2 -71 0z m71 -104 c0 -20 -6 -26
-27 -28 -29 -3 -35 9 -22 43 11 26 49 15 49 -15z"/>
<path d="M6407 1304 c-4 -4 -32 -6 -62 -5 l-55 2 0 -210 0 -211 45 0 45 0 0
55 c0 54 1 55 21 44 28 -15 82 -4 105 22 16 18 19 37 19 140 0 106 -2 121 -21
139 -21 22 -84 37 -97 24z m27 -90 c9 -24 7 -137 -3 -152 -5 -8 -17 -12 -27
-10 -16 3 -19 14 -22 77 -2 41 -1 80 2 88 7 18 43 16 50 -3z"/>
<path d="M1370 1140 l0 -160 49 0 49 0 25 63 26 62 1 -62 0 -63 45 0 45 0 0
160 0 160 -48 0 -48 0 -18 -50 c-25 -69 -36 -71 -36 -6 l0 56 -45 0 -45 0 0
-160z"/>
<path d="M1950 1140 l0 -160 45 0 44 0 3 83 3 82 18 -58 c18 -58 18 -58 55
-55 35 3 37 6 53 58 l17 55 1 -82 1 -83 45 0 45 0 0 160 0 160 -59 0 -58 0
-23 -77 -24 -78 -23 78 -24 77 -60 0 -59 0 0 -160z"/>
<path d="M2330 1140 l0 -160 85 0 c89 0 137 15 149 45 8 21 8 119 0 140 -9 23
-57 45 -99 45 -35 0 -35 0 -35 45 l0 45 -50 0 -50 0 0 -160z m134 -6 c10 -4
16 -18 16 -39 0 -30 -13 -45 -41 -45 -5 0 -9 20 -9 45 0 45 5 50 34 39z"/>
<path d="M2620 1140 l0 -160 45 0 45 0 0 160 0 160 -45 0 -45 0 0 -160z"/>
<path d="M5250 1140 l0 -160 45 0 45 0 1 78 1 77 16 -52 c15 -52 16 -53 53
-53 37 0 38 1 55 58 20 66 28 51 22 -45 l-4 -63 48 0 48 0 0 160 0 160 -59 0
-60 0 -22 -70 c-13 -38 -25 -67 -28 -64 -3 3 -15 33 -27 67 l-21 62 -56 3 -57
3 0 -161z"/>
<path d="M5630 1140 l0 -160 45 0 45 0 1 83 1 82 17 -55 c16 -52 18 -55 53
-58 37 -3 37 -3 55 55 l18 58 3 -82 3 -83 44 0 45 0 0 160 0 160 -59 0 -59 0
-22 -71 c-12 -40 -25 -68 -29 -63 -4 5 -16 37 -26 72 l-18 62 -59 0 -58 0 0
-160z"/>
<path d="M6550 1265 c0 -32 2 -35 30 -35 l30 0 0 -125 0 -125 45 0 44 0 3 123
3 122 33 3 c29 3 32 6 32 38 l0 34 -110 0 -110 0 0 -35z"/>
<path d="M6790 1139 l0 -160 52 3 52 3 22 55 23 55 1 -57 0 -58 50 0 50 0 0
161 0 160 -51 -3 -51 -3 -24 -55 -23 -55 -1 58 0 57 -50 0 -50 0 0 -161z"/>
<path d="M2883 1195 l-27 -55 27 -55 c27 -55 27 -55 72 -55 l45 0 -26 53 -26
53 26 52 c14 28 26 54 26 57 0 3 -20 5 -45 5 -45 0 -45 0 -72 -55z"/>
<path d="M3023 1195 l-27 -55 27 -55 c27 -55 27 -55 72 -55 l45 0 -26 53 -26
53 26 52 c14 28 26 54 26 57 0 3 -20 5 -45 5 -45 0 -45 0 -72 -55z"/>
<path d="M3620 1244 c0 -4 12 -28 27 -56 l27 -49 -27 -54 -27 -55 45 0 c45 0
45 0 72 55 l27 55 -27 55 c-27 55 -27 55 -72 55 -25 0 -45 -3 -45 -6z"/>
<path d="M3760 1245 c0 -3 12 -29 26 -57 l26 -52 -26 -53 -26 -53 45 0 c45 0
45 0 72 55 l27 55 -27 55 c-27 55 -27 55 -72 55 -25 0 -45 -2 -45 -5z"/>
<path d="M4030 1135 l0 -35 95 0 95 0 0 35 0 35 -95 0 -95 0 0 -35z"/>
</g>
</svg>
