<?xml version="1.0" encoding="UTF-8"?>
<svg version="1.1" xmlns="http://www.w3.org/2000/svg" width="800" height="800">
<path d="M0 0 C1.50433594 0.01353516 1.50433594 0.01353516 3.0390625 0.02734375 C4.19535156 0.04474609 4.19535156 0.04474609 5.375 0.0625 C5.375 2.7025 5.375 5.3425 5.375 8.0625 C7.025 8.0625 8.675 8.0625 10.375 8.0625 C10.93767578 9.25746094 10.93767578 9.25746094 11.51171875 10.4765625 C16.32192457 20.57162597 16.32192457 20.57162597 24.375 28.0625 C26.48450574 27.89507891 28.59465094 27.71154593 30.69140625 27.42578125 C33.70659728 27.01761128 36.71983337 26.71296969 39.75 26.4375 C41.24660156 26.29441406 41.24660156 26.29441406 42.7734375 26.1484375 C45.375 26.0625 45.375 26.0625 48.375 27.0625 C49.32421875 28.76953125 49.32421875 28.76953125 50.0625 30.875 C50.31386719 31.56207031 50.56523438 32.24914062 50.82421875 32.95703125 C51.375 35.0625 51.375 35.0625 51.375 39.0625 C52.26058594 39.44921875 52.26058594 39.44921875 53.1640625 39.84375 C59.5870654 43.38434524 63.47669078 50.53760608 66.91796875 56.765625 C69.23257047 60.41438052 71.24133388 62.68461129 75.375 64.0625 C75.375 66.3125 75.375 66.3125 74.375 69.0625 C69.93393118 72.25790317 64.6209204 73.7510199 59.375 75.0625 C59.51549518 76.54218324 59.66254826 78.02124516 59.8125 79.5 C59.89371094 80.32371094 59.97492188 81.14742188 60.05859375 81.99609375 C60.16430815 84.04912025 60.16430815 84.04912025 61.375 85.0625 C63.72487262 85.29777773 66.08056039 85.47636417 68.4375 85.625 C70.37302734 85.75068359 70.37302734 85.75068359 72.34765625 85.87890625 C73.34667969 85.93949219 74.34570312 86.00007813 75.375 86.0625 C75.74625 87.67125 75.74625 87.67125 76.125 89.3125 C77.04905637 93.07237708 77.04905637 93.07237708 79.5 95.0625 C81.375 97.0625 81.375 97.0625 81.625 100.8125 C81.5425 101.885 81.46 102.9575 81.375 104.0625 C80.39273438 104.17464844 80.39273438 104.17464844 79.390625 104.2890625 C72.44517163 105.28967866 67.0466969 107.4430667 60.90625 110.8203125 C58.375 112.0625 58.375 112.0625 55.375 112.0625 C55.045 114.7025 54.715 117.3425 54.375 120.0625 C55.4475 120.59875 56.52 121.135 57.625 121.6875 C63.26387346 125.58781612 63.99990285 132.75071866 65.375 139.0625 C62.405 138.4025 59.435 137.7425 56.375 137.0625 C56.91429911 141.05515158 56.91429911 141.05515158 59.34936523 142.4753418 C60.20216064 142.89984619 61.05495605 143.32435059 61.93359375 143.76171875 C63.34257935 144.48609131 63.34257935 144.48609131 64.7800293 145.22509766 C65.78074463 145.72831543 66.78145996 146.2315332 67.8125 146.75 C76.15748543 151.09872928 82.77770065 155.3293295 89.375 162.0625 C90.365 162.7225 91.355 163.3825 92.375 164.0625 C93.220625 163.2375 94.06625 162.4125 94.9375 161.5625 C97.69953135 159.22235411 98.37548191 159.06246114 102.25 158.75 C103.796875 158.9046875 103.796875 158.9046875 105.375 159.0625 C104.86896008 161.23124252 104.37516187 163.06217627 103.375 165.0625 C107.89487188 166.508859 112.29048948 167.03785374 116.6875 164.98046875 C118.22915369 164.10061047 119.75541759 163.19300342 121.26171875 162.25390625 C123.32074947 161.09308487 125.06773032 160.51562068 127.375 160.0625 C127.375 161.0525 127.375 162.0425 127.375 163.0625 C129.85 164.0525 129.85 164.0525 132.375 165.0625 C130.87958646 169.54874062 127.32667083 171.82906269 123.375 174.0625 C119.85445996 175.36873 116.25447409 176.2961833 112.625 177.25 C103.06807673 179.9570495 94.85053776 183.62555218 86.203125 188.44140625 C73.16450685 195.6721586 59.11308807 201.29531627 45.375 207.0625 C49.335 207.3925 53.295 207.7225 57.375 208.0625 C57.375 216.6425 57.375 225.2225 57.375 234.0625 C43.515 234.0625 29.655 234.0625 15.375 234.0625 C15.705 235.7125 16.035 237.3625 16.375 239.0625 C17.53128906 239.36994141 17.53128906 239.36994141 18.7109375 239.68359375 C19.71382812 239.95300781 20.71671875 240.22242188 21.75 240.5 C22.74773437 240.76683594 23.74546875 241.03367187 24.7734375 241.30859375 C27.375 242.0625 27.375 242.0625 29.375 243.0625 C28.5 246.9375 28.5 246.9375 27.375 248.0625 C37.275 248.3925 47.175 248.7225 57.375 249.0625 C57.375 257.9725 57.375 266.8825 57.375 276.0625 C48.465 276.3925 39.555 276.7225 30.375 277.0625 C37.59201121 283.17583172 37.59201121 283.17583172 45.375 286.0625 C45.375 287.0525 45.375 288.0425 45.375 289.0625 C20.59873113 301.16327671 20.59873113 301.16327671 9.375 305.0625 C10.42300781 305.36994141 10.42300781 305.36994141 11.4921875 305.68359375 C12.40226562 305.95300781 13.31234375 306.22242188 14.25 306.5 C15.15492188 306.76683594 16.05984375 307.03367187 16.9921875 307.30859375 C19.375 308.0625 19.375 308.0625 21.375 309.0625 C21.375 313.3525 21.375 317.6425 21.375 322.0625 C19.375 321.0625 17.375 320.0625 15.375 319.0625 C10.63224067 318.59599908 8.44639562 318.39287774 4.375 320.9375 C1.57550093 325.3117173 1.46015418 329.00092314 2.375 334.0625 C4.3676888 337.20481695 5.66607459 337.84194543 9.1875 338.9375 C12.94377233 339.0848048 15.83375345 338.26652383 19.375 337.0625 C19.375 336.4025 19.375 335.7425 19.375 335.0625 C20.035 335.0625 20.695 335.0625 21.375 335.0625 C21.50996251 337.16491603 21.60697307 339.2697961 21.6875 341.375 C21.74550781 342.54675781 21.80351563 343.71851563 21.86328125 344.92578125 C21.375 348.0625 21.375 348.0625 19.25 349.953125 C13.48145492 352.17903098 6.9059339 352.02236553 0.9609375 350.40625 C-5.27087607 347.61516747 -9.44556305 342.95748161 -12 336.6875 C-13.48896854 328.05148245 -12.56583087 321.94416174 -8.625 314.0625 C-11.98873931 315.11749967 -14.28500321 316.39784721 -16.625 319.0625 C-17.817824 324.3135523 -17.70013621 329.52422851 -17.625 334.875 C-17.63309604 336.34572753 -17.64477713 337.81643997 -17.66015625 339.28710938 C-17.68993332 342.87966611 -17.67065503 346.47001963 -17.625 350.0625 C-21.585 350.0625 -25.545 350.0625 -29.625 350.0625 C-29.625 342.4725 -29.625 334.8825 -29.625 327.0625 C-40.13171024 331.15458715 -45.07814383 334.85091106 -51.625 344.0625 C-59.42565935 354.60215491 -71.60439503 364.37291558 -84.625 367.0625 C-86.04034778 367.12706879 -87.45837689 367.14861039 -88.875 367.125 C-90.73125 367.0940625 -90.73125 367.0940625 -92.625 367.0625 C-92.191875 368.5475 -92.191875 368.5475 -91.75 370.0625 C-91.35394412 372.70108847 -91.48159083 373.80311227 -92.7890625 376.16796875 C-94.33629041 378.19918175 -95.95375207 380.13260655 -97.625 382.0625 C-98.14578125 382.80113281 -98.6665625 383.53976562 -99.203125 384.30078125 C-99.67234375 384.88214844 -100.1415625 385.46351563 -100.625 386.0625 C-101.285 386.0625 -101.945 386.0625 -102.625 386.0625 C-102.625 386.7225 -102.625 387.3825 -102.625 388.0625 C-103.285 388.0625 -103.945 388.0625 -104.625 388.0625 C-104.955 389.0525 -105.285 390.0425 -105.625 391.0625 C-110.6408938 395.74207908 -116.31206449 400.32292421 -122.625 403.0625 C-126.5625 402.8125 -126.5625 402.8125 -129.625 402.0625 C-129.625 401.0725 -129.625 400.0825 -129.625 399.0625 C-132.66624316 398.81423525 -133.94126505 398.7390865 -136.625 400.0625 C-138.61900155 402.85045182 -140.14669603 405.7745265 -141.76171875 408.796875 C-147.08493973 418.12646146 -155.56426204 425.43014938 -164.625 431.0625 C-165.615 431.0625 -166.605 431.0625 -167.625 431.0625 C-168.00781159 425.83074163 -166.84354707 422.68447306 -164.625 418.0625 C-169.32261293 419.03380267 -169.32261293 419.03380267 -173.1875 421.625 C-175.35411388 423.79161388 -177.66789358 423.73393262 -180.625 424.0625 C-180.46875 421.3046875 -180.46875 421.3046875 -179.625 418.0625 C-177.15625 416.0078125 -177.15625 416.0078125 -174.125 414.1875 C-170.1163295 411.64581313 -170.1163295 411.64581313 -167.67578125 407.7734375 C-167.35507786 405.35178633 -167.35507786 405.35178633 -167.625 402.0625 C-170.925 401.4025 -174.225 400.7425 -177.625 400.0625 C-177.625 397.0925 -177.625 394.1225 -177.625 391.0625 C-179.23375 391.1553125 -179.23375 391.1553125 -180.875 391.25 C-184.625 391.0625 -184.625 391.0625 -187.0625 389.875 C-188.625 388.0625 -188.625 388.0625 -188.875 385.375 C-188.7925 384.611875 -188.71 383.84875 -188.625 383.0625 C-193.6292805 384.28305622 -196.36618299 386.36176088 -199.9140625 389.91796875 C-201.625 391.0625 -201.625 391.0625 -203.8359375 390.73828125 C-204.42632812 390.51527344 -205.01671875 390.29226563 -205.625 390.0625 C-204.965 389.0725 -204.305 388.0825 -203.625 387.0625 C-203.16898739 384.55353314 -203.16898739 384.55353314 -203 381.875 C-202.92523438 380.97394531 -202.85046875 380.07289063 -202.7734375 379.14453125 C-202.69996094 378.11392578 -202.69996094 378.11392578 -202.625 377.0625 C-203.38425781 377.35125 -204.14351562 377.64 -204.92578125 377.9375 C-205.91964844 378.30875 -206.91351563 378.68 -207.9375 379.0625 C-208.92363281 379.43375 -209.90976562 379.805 -210.92578125 380.1875 C-213.625 381.0625 -213.625 381.0625 -216.625 381.0625 C-216.955 384.3625 -217.285 387.6625 -217.625 391.0625 C-219.254375 391.18625 -220.88375 391.31 -222.5625 391.4375 C-226.39532551 391.75320249 -229.8188376 392.3449459 -233.5 393.4375 C-235.69140625 393.98046875 -235.69140625 393.98046875 -237.625 394.0625 C-240.4375 391.75 -240.4375 391.75 -242.625 389.0625 C-244.79846568 388.20130866 -244.79846568 388.20130866 -246.625 388.0625 C-246.955 389.3825 -247.285 390.7025 -247.625 392.0625 C-245.645 392.0625 -243.665 392.0625 -241.625 392.0625 C-242 394 -242 394 -242.625 396.0625 C-248.60829896 399.05414948 -259.57840837 397.8134706 -265.96875 396.23828125 C-269.42716268 394.87017388 -271.98460669 393.70289331 -274.625 391.0625 C-274.25 388.4375 -274.25 388.4375 -273.625 386.0625 C-272.305 385.7325 -270.985 385.4025 -269.625 385.0625 C-269.40337671 383.43925914 -269.19810197 381.813779 -269 380.1875 C-268.88398438 379.28257812 -268.76796875 378.37765625 -268.6484375 377.4453125 C-268.64070312 376.65898437 -268.63296875 375.87265625 -268.625 375.0625 C-271.1904594 372.4970406 -273.10186668 372.52203913 -276.625 372.0625 C-276.934375 373.196875 -277.24375 374.33125 -277.5625 375.5 C-278.625 379.0625 -278.625 379.0625 -279.625 380.0625 C-285.33690755 379.6937566 -289.36832218 377.98354114 -294.25 375.25 C-294.89195312 374.90646484 -295.53390625 374.56292969 -296.1953125 374.20898438 C-303.46018202 370.24159149 -309.08668445 365.70568919 -312.625 358.0625 C-313.65986326 353.41787674 -314.23398741 348.8018422 -314.625 344.0625 C-315.35460937 344.38605469 -316.08421875 344.70960938 -316.8359375 345.04296875 C-319.51622758 346.02273865 -321.42165702 346.36042091 -324.25 346.375 C-325.00539063 346.39175781 -325.76078125 346.40851563 -326.5390625 346.42578125 C-329.20776643 345.96100697 -330.06582003 345.26197018 -331.625 343.0625 C-331.98828125 340.94140625 -331.98828125 340.94140625 -331.9375 338.625 C-331.93363281 337.86316406 -331.92976563 337.10132813 -331.92578125 336.31640625 C-331.5989386 333.86720873 -330.84454601 332.19549083 -329.625 330.0625 C-328.635 330.0625 -327.645 330.0625 -326.625 330.0625 C-327.12 329.27875 -327.615 328.495 -328.125 327.6875 C-329.625 325.0625 -329.625 325.0625 -329.625 323.0625 C-331.605 323.0625 -333.585 323.0625 -335.625 323.0625 C-335.5625 319.9375 -335.5625 319.9375 -334.625 316.0625 C-333 314.578125 -333 314.578125 -331.0625 313.1875 C-328.7677526 311.43574838 -327.77093674 310.61307951 -327.0234375 307.79296875 C-326.89242799 304.10683759 -326.98353176 301.87027482 -329.3125 298.9375 C-332.26263109 297.82123418 -333.63456693 298.1143139 -336.625 299.0625 C-337.40875 299.43375 -338.1925 299.805 -339 300.1875 C-342.65230552 301.40493517 -344.94796314 301.1519924 -348.625 300.0625 C-350.5625 297 -350.5625 297 -351.625 294.0625 C-354.56591587 294.24665432 -354.56591587 294.24665432 -357.625 295.0625 C-358.76709817 296.84478936 -358.76709817 296.84478936 -359.625 299.0625 C-362.12935188 302.12337452 -363.77352596 303.79075297 -367.5625 305 C-371.97292821 303.64986892 -372.68005671 300.99084171 -374.796875 297.046875 C-376.86542783 293.67000671 -379.3387174 290.90658453 -382.0625 288.0625 C-390.25185534 279.40100044 -396.80556222 270.66347861 -399.3125 258.8125 C-398.22476167 254.46154669 -395.23527605 252.51832732 -391.625 250.0625 C-390.36326058 249.3584494 -389.09278718 248.66973006 -387.8125 248 C-384.26868642 245.84591724 -383.80215839 244.88826478 -382.625 241.0625 C-382.13 240.588125 -381.635 240.11375 -381.125 239.625 C-379.35905079 238.05127271 -379.35905079 238.05127271 -378.9375 235.125 C-377.32862112 231.37094928 -375.73510001 231.01030786 -372.11328125 229.4609375 C-368.20219022 227.2628675 -365.12649064 224.1379662 -361.92626953 221.03442383 C-354.67855186 214.0625 -354.67855186 214.0625 -350.625 214.0625 C-350.295 213.0725 -349.965 212.0825 -349.625 211.0625 C-347.95833333 210.39583333 -346.29166667 209.72916667 -344.625 209.0625 C-344.295 208.0725 -343.965 207.0825 -343.625 206.0625 C-341.94705285 205.34754861 -340.26604497 204.63862753 -338.56787109 203.97314453 C-335.22149451 202.40466192 -332.66142705 199.95896617 -329.9375 197.5 C-321.58849413 190.0625 -321.58849413 190.0625 -315.625 190.0625 C-315.625 175.2125 -315.625 160.3625 -315.625 145.0625 C-324.865 145.0625 -334.105 145.0625 -343.625 145.0625 C-343.625 136.4825 -343.625 127.9025 -343.625 119.0625 C-325.475 119.0625 -307.325 119.0625 -288.625 119.0625 C-288.625 135.2325 -288.625 151.4025 -288.625 168.0625 C-285.655 166.4125 -282.685 164.7625 -279.625 163.0625 C-278.965 163.0625 -278.305 163.0625 -277.625 163.0625 C-277.66052979 162.39645752 -277.69605957 161.73041504 -277.73266602 161.04418945 C-278.65727895 142.90850094 -278.42159494 125.2071625 -277.625 107.0625 C-290.165 107.0625 -302.705 107.0625 -315.625 107.0625 C-315.625 98.1525 -315.625 89.2425 -315.625 80.0625 C-293.845 80.0625 -272.065 80.0625 -249.625 80.0625 C-249.625 92.9325 -249.625 105.8025 -249.625 119.0625 C-242.32988354 118.82535203 -242.32988354 118.82535203 -239.84765625 116.72265625 C-239.46480469 116.19542969 -239.08195313 115.66820312 -238.6875 115.125 C-235.6933677 111.6727491 -233.09096531 111.33975953 -228.70703125 110.60546875 C-225.47255702 109.76195671 -223.90297551 107.44895053 -221.625 105.0625 C-218.84570706 103.46317315 -216.02250141 102.01112741 -213.1484375 100.58984375 C-210.52188111 99.25121946 -210.52188111 99.25121946 -209.21484375 96.8828125 C-207.625 95.0625 -207.625 95.0625 -204.48046875 94.77734375 C-203.27003906 94.85082031 -202.05960938 94.92429687 -200.8125 95 C-195.42796722 95.31741619 -192.27355656 94.87753498 -187.625 92.0625 C-184.28915888 88.84168789 -184.05864982 85.57245811 -183.625 81.0625 C-182.97273437 81.03671875 -182.32046875 81.0109375 -181.6484375 80.984375 C-175.80998826 80.60547859 -172.35628581 79.75521087 -167.625 76.0625 C-166.635 75.7325 -165.645 75.4025 -164.625 75.0625 C-164.295 74.0725 -163.965 73.0825 -163.625 72.0625 C-160.32075883 69.30896569 -158.32028463 68.12243833 -154 67.75 C-151.39701734 67.99101691 -149.10386823 68.26926217 -146.625 69.0625 C-146.2846875 67.45375 -146.2846875 67.45375 -145.9375 65.8125 C-144.41312301 61.45713717 -143.52979991 60.42164995 -139.625 58.0625 C-135.03492995 55.88416167 -130.90524905 54.16743845 -125.8125 53.75 C-122.27968488 53.37385786 -122.27968488 53.37385786 -120.40673828 49.7590332 C-117.57030986 45.58324283 -114.52749699 44.07987731 -109.9296875 42.23046875 C-109.18824997 41.91198975 -108.44681244 41.59351074 -107.6829071 41.26538086 C-106.1069066 40.59034163 -104.5271012 39.92412611 -102.94387817 39.26620483 C-98.84710356 37.56269841 -94.77865407 35.7938288 -90.70703125 34.03125 C-89.91181564 33.68893845 -89.11660004 33.34662689 -88.29728699 32.99394226 C-77.68656334 28.40172599 -67.51850805 23.04169815 -57.625 17.0625 C-55.21954362 15.85977181 -53.67503047 15.96178528 -51 16 C-49.77410156 16.01353516 -49.77410156 16.01353516 -48.5234375 16.02734375 C-47.89695312 16.03894531 -47.27046875 16.05054687 -46.625 16.0625 C-46.625 15.4025 -46.625 14.7425 -46.625 14.0625 C-40.92525224 9.08272038 -33.66761781 6.89281331 -26.5625 4.75 C-25.72428711 4.49573242 -24.88607422 4.24146484 -24.02246094 3.97949219 C-19.1604455 2.58083021 -14.48550251 1.68225859 -9.43969727 1.28442383 C-6.0625352 0.87142231 -3.60647924 -0.04193581 0 0 Z " fill="#FCDB00" transform="translate(522.625,52.9375)"/>
<path d="M0 0 C1.50433594 0.01353516 1.50433594 0.01353516 3.0390625 0.02734375 C4.19535156 0.04474609 4.19535156 0.04474609 5.375 0.0625 C5.375 2.7025 5.375 5.3425 5.375 8.0625 C7.025 8.0625 8.675 8.0625 10.375 8.0625 C10.93767578 9.25746094 10.93767578 9.25746094 11.51171875 10.4765625 C16.32192457 20.57162597 16.32192457 20.57162597 24.375 28.0625 C26.48450574 27.89507891 28.59465094 27.71154593 30.69140625 27.42578125 C33.70659728 27.01761128 36.71983337 26.71296969 39.75 26.4375 C41.24660156 26.29441406 41.24660156 26.29441406 42.7734375 26.1484375 C45.375 26.0625 45.375 26.0625 48.375 27.0625 C49.32421875 28.76953125 49.32421875 28.76953125 50.0625 30.875 C50.31386719 31.56207031 50.56523438 32.24914062 50.82421875 32.95703125 C51.375 35.0625 51.375 35.0625 51.375 39.0625 C52.26058594 39.44921875 52.26058594 39.44921875 53.1640625 39.84375 C59.5870654 43.38434524 63.47669078 50.53760608 66.91796875 56.765625 C69.23257047 60.41438052 71.24133388 62.68461129 75.375 64.0625 C75.375 66.3125 75.375 66.3125 74.375 69.0625 C69.93393118 72.25790317 64.6209204 73.7510199 59.375 75.0625 C59.51549518 76.54218324 59.66254826 78.02124516 59.8125 79.5 C59.89371094 80.32371094 59.97492188 81.14742188 60.05859375 81.99609375 C60.16430815 84.04912025 60.16430815 84.04912025 61.375 85.0625 C63.72487262 85.29777773 66.08056039 85.47636417 68.4375 85.625 C70.37302734 85.75068359 70.37302734 85.75068359 72.34765625 85.87890625 C73.34667969 85.93949219 74.34570312 86.00007813 75.375 86.0625 C75.74625 87.67125 75.74625 87.67125 76.125 89.3125 C77.04905637 93.07237708 77.04905637 93.07237708 79.5 95.0625 C81.375 97.0625 81.375 97.0625 81.625 100.8125 C81.5425 101.885 81.46 102.9575 81.375 104.0625 C80.39273438 104.17464844 80.39273438 104.17464844 79.390625 104.2890625 C72.44517163 105.28967866 67.0466969 107.4430667 60.90625 110.8203125 C58.375 112.0625 58.375 112.0625 55.375 112.0625 C55.045 114.7025 54.715 117.3425 54.375 120.0625 C55.4475 120.59875 56.52 121.135 57.625 121.6875 C63.26387346 125.58781612 63.99990285 132.75071866 65.375 139.0625 C62.405 138.4025 59.435 137.7425 56.375 137.0625 C56.91429911 141.05515158 56.91429911 141.05515158 59.34936523 142.4753418 C60.20216064 142.89984619 61.05495605 143.32435059 61.93359375 143.76171875 C63.34257935 144.48609131 63.34257935 144.48609131 64.7800293 145.22509766 C65.78074463 145.72831543 66.78145996 146.2315332 67.8125 146.75 C76.15748543 151.09872928 82.77770065 155.3293295 89.375 162.0625 C90.365 162.7225 91.355 163.3825 92.375 164.0625 C93.220625 163.2375 94.06625 162.4125 94.9375 161.5625 C97.69953135 159.22235411 98.37548191 159.06246114 102.25 158.75 C103.796875 158.9046875 103.796875 158.9046875 105.375 159.0625 C104.86896008 161.23124252 104.37516187 163.06217627 103.375 165.0625 C107.89487188 166.508859 112.29048948 167.03785374 116.6875 164.98046875 C118.22915369 164.10061047 119.75541759 163.19300342 121.26171875 162.25390625 C123.32074947 161.09308487 125.06773032 160.51562068 127.375 160.0625 C127.375 161.0525 127.375 162.0425 127.375 163.0625 C129.025 163.7225 130.675 164.3825 132.375 165.0625 C130.87958646 169.54874062 127.32667083 171.82906269 123.375 174.0625 C119.85445996 175.36873 116.25447409 176.2961833 112.625 177.25 C103.06807673 179.9570495 94.85053776 183.62555218 86.203125 188.44140625 C73.16450685 195.6721586 59.11308807 201.29531627 45.375 207.0625 C49.335 207.3925 53.295 207.7225 57.375 208.0625 C57.375 216.6425 57.375 225.2225 57.375 234.0625 C43.515 234.0625 29.655 234.0625 15.375 234.0625 C15.705 235.7125 16.035 237.3625 16.375 239.0625 C17.14585937 239.26746094 17.91671875 239.47242188 18.7109375 239.68359375 C19.71382812 239.95300781 20.71671875 240.22242188 21.75 240.5 C22.74773437 240.76683594 23.74546875 241.03367187 24.7734375 241.30859375 C27.375 242.0625 27.375 242.0625 29.375 243.0625 C29.02062488 245.63171961 28.60744151 246.83350774 26.73779583 248.67540932 C23.61603432 250.50805446 21.43368662 250.43997628 17.82026672 250.44345093 C17.16322461 250.4481309 16.50618249 250.45281087 15.82923001 250.45763266 C13.62854208 250.46959348 11.4284757 250.46012109 9.2277832 250.45068359 C7.6488814 250.45474934 6.06998244 250.46009124 4.49108887 250.46661377 C0.19892811 250.48030738 -4.09301659 250.47497648 -8.38518119 250.46547651 C-12.88959056 250.45787321 -17.39398161 250.464929 -21.89839172 250.46963501 C-29.47697251 250.4750979 -37.05546572 250.4678946 -44.6340332 250.45361328 C-53.35776638 250.43736225 -62.08128836 250.44251785 -70.80501622 250.4590925 C-78.3152974 250.47278405 -85.82551558 250.47458755 -93.33580524 250.46677649 C-97.81154342 250.46213195 -102.28718306 250.46138376 -106.76291466 250.47138596 C-110.98601056 250.4801627 -115.20884002 250.47384218 -119.43190765 250.45670319 C-120.96798323 250.45279137 -122.50408188 250.45377915 -124.04014778 250.46049118 C-148.90334385 250.55896673 -171.44752041 244.94832595 -189.7578125 227.16015625 C-196.73057919 219.95153911 -202.32925337 210.50031989 -205.625 201.0625 C-205.92148437 200.28003906 -206.21796875 199.49757812 -206.5234375 198.69140625 C-212.34173779 180.30237461 -209.35968209 160.33737818 -201 143.375 C-190.30348439 125.2291253 -173.59813411 112.58673387 -153.25 107.125 C-135.54300833 103.62275718 -116.6021183 106.51766378 -100.9375 115.625 C-98.40025548 117.33764005 -96.00764457 119.14088747 -93.625 121.0625 C-92.78066406 121.743125 -91.93632812 122.42375 -91.06640625 123.125 C-78.54336612 133.79912857 -69.89291606 147.90447061 -66.625 164.0625 C-66.625 168.3525 -66.625 172.6425 -66.625 177.0625 C-58.045 177.0625 -49.465 177.0625 -40.625 177.0625 C-43.26610424 150.24513385 -50.28702681 128.72493583 -69.625 109.0625 C-70.37265625 108.30195313 -71.1203125 107.54140625 -71.890625 106.7578125 C-82.87396014 96.24726994 -96.15057367 89.44043792 -110.625 85.0625 C-111.502771 84.79397217 -112.38054199 84.52544434 -113.28491211 84.2487793 C-121.18271822 82.03917648 -128.63573669 81.55831509 -136.8125 81.625 C-138.08174316 81.63039795 -139.35098633 81.6357959 -140.65869141 81.64135742 C-151.80755767 81.82117785 -162.08194736 83.1237402 -172.35546875 87.6875 C-175.7430696 89.11215412 -177.99515747 89.32809823 -181.625 89.0625 C-181.955 86.7525 -182.285 84.4425 -182.625 82.0625 C-182.04492188 81.96453125 -181.46484375 81.8665625 -180.8671875 81.765625 C-175.57815765 80.75320344 -172.02560676 79.3105669 -167.625 76.0625 C-166.635 75.7325 -165.645 75.4025 -164.625 75.0625 C-164.13 73.5775 -164.13 73.5775 -163.625 72.0625 C-160.32075883 69.30896569 -158.32028463 68.12243833 -154 67.75 C-151.39701734 67.99101691 -149.10386823 68.26926217 -146.625 69.0625 C-146.398125 67.99 -146.17125 66.9175 -145.9375 65.8125 C-144.41312301 61.45713717 -143.52979991 60.42164995 -139.625 58.0625 C-135.03492995 55.88416167 -130.90524905 54.16743845 -125.8125 53.75 C-122.27968488 53.37385786 -122.27968488 53.37385786 -120.40673828 49.7590332 C-117.57030986 45.58324283 -114.52749699 44.07987731 -109.9296875 42.23046875 C-108.8175312 41.75275024 -108.8175312 41.75275024 -107.6829071 41.26538086 C-106.1069066 40.59034163 -104.5271012 39.92412611 -102.94387817 39.26620483 C-98.84710356 37.56269841 -94.77865407 35.7938288 -90.70703125 34.03125 C-89.91181564 33.68893845 -89.11660004 33.34662689 -88.29728699 32.99394226 C-77.68656334 28.40172599 -67.51850805 23.04169815 -57.625 17.0625 C-55.21954362 15.85977181 -53.67503047 15.96178528 -51 16 C-49.77410156 16.01353516 -49.77410156 16.01353516 -48.5234375 16.02734375 C-47.89695312 16.03894531 -47.27046875 16.05054687 -46.625 16.0625 C-46.625 15.4025 -46.625 14.7425 -46.625 14.0625 C-40.92525224 9.08272038 -33.66761781 6.89281331 -26.5625 4.75 C-25.72428711 4.49573242 -24.88607422 4.24146484 -24.02246094 3.97949219 C-19.1604455 2.58083021 -14.48550251 1.68225859 -9.43969727 1.28442383 C-6.0625352 0.87142231 -3.60647924 -0.04193581 0 0 Z " fill="#FCDC00" transform="translate(522.625,52.9375)"/>
<path d="M0 0 C21.53887835 17.1026866 34.91192947 39.24382789 38.75 66.75 C38.75 70.38 38.75 74.01 38.75 77.75 C30.17 77.75 21.59 77.75 12.75 77.75 C12.688125 75.935 12.62625 74.12 12.5625 72.25 C11.05012481 53.44749766 2.41275839 37.70678 -11.25 24.75 C-27.36210609 11.4989221 -46.5867085 5.98453873 -67.25 7.75 C-85.23119827 10.09921766 -101.63189651 19.65369131 -113.4375 33.3125 C-116.6327819 37.53342794 -119.15593191 41.98806433 -121.5625 46.6875 C-121.88822998 47.31922119 -122.21395996 47.95094238 -122.54956055 48.60180664 C-127.10796302 57.95216303 -128.79413215 67.14492667 -128.6875 77.5 C-128.67920166 78.54841064 -128.67090332 79.59682129 -128.66235352 80.67700195 C-128.24457682 99.98542187 -120.58812258 116.07215839 -107.1640625 129.8984375 C-89.31567638 146.71586991 -66.46337074 150.0859577 -42.84301758 149.99291992 C-41.2384534 149.99399548 -39.6338896 149.99593821 -38.02932739 149.99867249 C-33.71394562 150.00347596 -29.39866894 149.99592511 -25.08329988 149.98571944 C-20.55591611 149.97687826 -16.02853505 149.97869746 -11.50114441 149.9790802 C-3.91342426 149.97814718 3.6742556 149.96950669 11.26196289 149.95581055 C20.03894786 149.94002649 28.81588897 149.93481478 37.5928871 149.9355461 C46.94950095 149.93622042 56.30609787 149.92929287 65.66270661 149.9200995 C68.35812268 149.91796665 71.05353603 149.91725815 73.74895287 149.91686058 C77.97203943 149.91585892 82.19508895 149.9097769 86.4181633 149.89969444 C87.97022462 149.89676588 89.5222902 149.89554479 91.07435417 149.89612198 C93.18589568 149.89661026 95.29733231 149.89098124 97.40885925 149.88371277 C98.59214908 149.88203692 99.7754389 149.88036108 100.99458599 149.87863445 C103.71107232 149.93822085 103.71107232 149.93822085 105.75 148.75 C108.07581297 148.73355336 110.4022464 148.7860578 112.7265625 148.87109375 C113.41181 148.89470474 114.0970575 148.91831573 114.80307007 148.94264221 C116.99392416 149.01927857 119.18442472 149.10330246 121.375 149.1875 C122.85935764 149.24072076 124.34373259 149.29346116 125.828125 149.34570312 C129.46903921 149.47399037 133.10938196 149.61225834 136.75 149.75 C136.75 158.66 136.75 167.57 136.75 176.75 C104.1473301 176.75728996 71.54497653 176.73269206 38.94248486 176.61790943 C28.92199905 176.58322687 18.90165285 176.55788844 8.88110352 176.55444336 C0.04442008 176.55138223 -8.79202367 176.53064593 -17.6286146 176.48947543 C-22.27249885 176.4684149 -26.91604445 176.455406 -31.55997658 176.46384621 C-70.02235163 176.52197622 -101.2295603 172.37378665 -129.8125 144.2265625 C-148.84644033 124.43822819 -155.87599533 98.30376759 -155.53125 71.44921875 C-155.12207547 59.22922128 -151.55857142 47.72519897 -146.25 36.75 C-145.82074219 35.85152344 -145.39148438 34.95304687 -144.94921875 34.02734375 C-137.086346 18.63383231 -125.5016629 6.38492703 -111.25 -3.25 C-110.45851563 -3.78625 -109.66703125 -4.3225 -108.8515625 -4.875 C-75.45501963 -26.17777817 -31.63519296 -22.63164516 0 0 Z " fill="#F9111B" transform="translate(443.25,152.25)"/>
<path d="M0 0 C3.54456826 2.80501602 6.80230176 5.80785332 10 9 C10.5775 9.56589844 11.155 10.13179687 11.75 10.71484375 C20.66255476 20.20764296 25 33.21651351 25 46 C16.75 46 8.5 46 0 46 C-0.99 42.04 -1.98 38.08 -3 34 C-7.49058774 26.85588314 -13.30381038 20.1584653 -21.5703125 17.47265625 C-30.46696592 15.74195679 -39.28767931 15.98252495 -47 21 C-54.47124647 26.12119985 -58.16762566 32.50287697 -61 41 C-61.91371995 50.73463174 -59.65533497 58.08253104 -54 66 C-53.67 66.99 -53.34 67.98 -53 69 C-51.19864885 70.09677724 -51.19864885 70.09677724 -49 71 C-47.84564453 71.62068359 -47.84564453 71.62068359 -46.66796875 72.25390625 C-45.44013672 72.90166016 -45.44013672 72.90166016 -44.1875 73.5625 C-43.37667969 73.99691406 -42.56585938 74.43132812 -41.73046875 74.87890625 C-36.18771256 77.15468741 -30.34835217 77.1252678 -24.42756653 77.12698364 C-23.6975355 77.12854363 -22.96750447 77.13010362 -22.21535128 77.13171089 C-19.78653158 77.13567691 -17.35777517 77.13254842 -14.92895508 77.12939453 C-13.18073999 77.13075049 -11.43252518 77.13253152 -9.68431091 77.13470459 C-4.94906354 77.13925476 -0.213838 77.13749956 4.52140975 77.1343255 C9.47898018 77.13179064 14.43654876 77.13414248 19.39411926 77.13571167 C27.71546769 77.13752956 36.03680722 77.13513649 44.3581543 77.13037109 C53.98134674 77.12492384 63.60451801 77.12669602 73.22770995 77.1321975 C81.49196593 77.13673306 89.75621553 77.13737716 98.02047235 77.13475883 C102.95570588 77.1331992 107.89092945 77.13299385 112.82616234 77.13629532 C117.46284033 77.13918063 122.09949097 77.13718614 126.736166 77.13140106 C128.43896438 77.13007725 130.14176506 77.13046118 131.84456253 77.13266373 C134.16591209 77.13538992 136.48717354 77.13197609 138.80851746 77.12698364 C140.10837176 77.12660662 141.40822607 77.12622959 142.7474699 77.12584114 C145.41280747 77.02271861 147.46344769 76.69575423 150 76 C154.6844993 76.16427543 159.32674859 76.61056238 164 77 C164 85.58 164 94.16 164 103 C138.72112275 103.06958908 113.44226875 103.12305652 88.16331482 103.15543652 C76.42459848 103.17087391 64.68594293 103.19190339 52.94726562 103.22631836 C42.71013502 103.25631673 32.47304847 103.2755977 22.23587513 103.28226548 C16.82055517 103.28616011 11.40536118 103.29524725 5.99008179 103.31719017 C0.88147673 103.33772055 -4.22695178 103.34380071 -9.33559418 103.33932304 C-11.1994498 103.3401409 -13.06331201 103.34600709 -14.92713165 103.35761642 C-35.59745799 103.47993152 -54.33845727 101.31745011 -69.890625 86.171875 C-70.93476563 85.09679687 -70.93476563 85.09679687 -72 84 C-72.57234375 83.44828125 -73.1446875 82.8965625 -73.734375 82.328125 C-82.77995428 72.90953214 -86.40274801 59.42536178 -86.3125 46.6875 C-86.30686035 45.85154297 -86.3012207 45.01558594 -86.29541016 44.15429688 C-85.98451217 28.28310846 -79.31273039 15.98398438 -68 5 C-49.28456167 -11.63594518 -21.01814367 -13.86004466 0 0 Z " fill="#F9121B" transform="translate(416,184)"/>
<path d="M0 0 C21.78 0 43.56 0 66 0 C66.01981036 24.81990248 65.96818884 49.63614914 65.79807091 74.455302 C65.76910333 78.72321134 65.74164086 82.99113043 65.71398926 87.25904846 C65.66188051 95.26884838 65.6085028 103.27863927 65.5546174 111.28842741 C65.49313065 120.43788142 65.43313738 129.58734506 65.37324238 138.73680961 C65.25043863 157.49121725 65.12579474 176.2456122 65 195 C56.42 195 47.84 195 39 195 C38.97494385 191.74858154 38.9498877 188.49716309 38.92407227 185.1472168 C38.83986135 174.29477063 38.75128085 163.44236312 38.66066074 152.58996868 C38.60595307 146.02280261 38.55262862 139.45563191 38.50268555 132.88842773 C38.45425746 126.5276104 38.40190864 120.16683541 38.34705925 113.80607033 C38.32698402 111.40294286 38.30822309 108.99980396 38.29092598 106.59665489 C38.19005999 92.72166788 37.92241343 78.87163921 37.3289423 65.00805187 C36.97580262 56.57664434 37.02987116 48.24414981 37.4375 39.8125 C37.7159375 33.4703125 37.7159375 33.4703125 38 27 C25.46 27 12.92 27 0 27 C0 18.09 0 9.18 0 0 Z " fill="#F6111B" transform="translate(207,133)"/>
<path d="M0 0 C18.15 0 36.3 0 55 0 C55 16.17 55 32.34 55 49 C55.99 49.495 55.99 49.495 57 50 C56.01 50.495 56.01 50.495 55 51 C54.67 85.65 54.34 120.3 54 156 C45.75 156 37.5 156 29 156 C29 128.28 29 100.56 29 72 C25.535 72.495 25.535 72.495 22 73 C22.99 72.01 22.99 72.01 24 71 C25.32 71 26.64 71 28 71 C28 56.15 28 41.3 28 26 C18.76 26 9.52 26 0 26 C0 17.42 0 8.84 0 0 Z " fill="#F4111B" transform="translate(179,172)"/>
<path d="M0 0 C4.29 0 8.58 0 13 0 C14.40843365 4.22530094 15.45854878 7.88803627 16.25390625 12.203125 C16.46853516 13.3478125 16.68316406 14.4925 16.90429688 15.671875 C17.12150391 16.85265625 17.33871094 18.0334375 17.5625 19.25 C17.99861868 21.60987249 18.43728903 23.9692753 18.87890625 26.328125 C19.0704126 27.3687207 19.26191895 28.40931641 19.45922852 29.48144531 C19.88623597 31.98037245 19.88623597 31.98037245 21 34 C21.99 33.505 21.99 33.505 23 33 C23.33 22.11 23.66 11.22 24 0 C32.91 0 41.82 0 51 0 C51 13.86 51 27.72 51 42 C47.37 42 43.74 42 40 42 C40 31.11 40 20.22 40 9 C38.02 9 36.04 9 34 9 C34.02618408 9.82201904 34.05236816 10.64403809 34.0793457 11.4909668 C34.1834144 15.22294938 34.24836128 18.9546266 34.3125 22.6875 C34.35439453 23.98107422 34.39628906 25.27464844 34.43945312 26.60742188 C34.45556641 27.85458984 34.47167969 29.10175781 34.48828125 30.38671875 C34.51446533 31.53358154 34.54064941 32.68044434 34.56762695 33.86206055 C33.82154795 37.98651364 32.24122746 39.42935111 29 42 C22.88177672 43.4517818 17.1901736 42.82451083 11 42 C10.67 40.02 10.34 38.04 10 36 C8.02 36 6.04 36 4 36 C3.67 37.98 3.34 39.96 3 42 C-0.3 42 -3.6 42 -7 42 C-6.36542169 32.77050022 -4.75175087 23.86284082 -2.9375 14.8125 C-2.65248205 13.36924179 -2.36797337 11.92588291 -2.08398438 10.48242188 C-1.39517836 6.98710344 -0.6995319 3.49318967 0 0 Z M6 18 C5.67 21.3 5.34 24.6 5 28 C6.32 28 7.64 28 9 28 C8.34 24.7 7.68 21.4 7 18 C6.67 18 6.34 18 6 18 Z " fill="#303030" transform="translate(298,601)"/>
<path d="M0 0 C3.63 0 7.26 0 11 0 C11 1.32 11 2.64 11 4 C12.19625 4.103125 13.3925 4.20625 14.625 4.3125 C20.46912397 5.07522517 25.35081667 7.14241683 29.0859375 11.92578125 C31.14082669 16.58879903 30.74297508 22.05302429 30 27 C27.97884443 31.0595369 25.71739065 33.39782654 22 36 C19.24921116 36.91692961 17.64051087 37.10886083 14.8125 37.0625 C13.554375 37.041875 12.29625 37.02125 11 37 C11 38.98 11 40.96 11 43 C7.37 43 3.74 43 0 43 C-0.495 40.525 -0.495 40.525 -1 38 C-1.72445312 37.91363281 -2.44890625 37.82726562 -3.1953125 37.73828125 C-9.64770791 36.80053312 -13.56861375 35.8858874 -18 31 C-20.5497728 25.74164502 -20.67545026 20.74132719 -20 15 C-17.69255468 10.11886568 -14.79661805 7.44356014 -10 5 C-7.00367458 4.41642762 -4.04750745 4.13544478 -1 4 C-0.67 2.68 -0.34 1.36 0 0 Z " fill="#F9121B" transform="translate(227,359)"/>
<path d="M0 0 C3.96 0 7.92 0 12 0 C12.82134989 2.49738858 13.63215748 4.99744805 14.4375 7.5 C14.66759766 8.19609375 14.89769531 8.8921875 15.13476562 9.609375 C16.67049584 14.41687828 17.5077359 18.97551131 18 24 C18.66 24 19.32 24 20 24 C20.09796875 23.35675781 20.1959375 22.71351563 20.296875 22.05078125 C21.55146468 14.46916604 23.61015721 7.29714135 26 0 C29.96 0 33.92 0 38 0 C43.36392405 27.53481013 43.36392405 27.53481013 43 41 C39.7 41 36.4 41 33 41 C32.01 34.4 31.02 27.8 30 21 C28.2791123 23.58133154 27.5348737 25.12794206 26.7109375 28.01171875 C26.38222656 29.14770508 26.38222656 29.14770508 26.046875 30.30664062 C25.71429688 31.48516602 25.71429688 31.48516602 25.375 32.6875 C25.14554687 33.48478516 24.91609375 34.28207031 24.6796875 35.10351562 C24.11513764 37.0676787 23.55695012 39.03366847 23 41 C20.36 41 17.72 41 15 41 C10.77676538 27.3667426 10.77676538 27.3667426 9 21 C6.87063281 27.54019921 5.96086298 34.20240549 5 41 C1.37 41 -2.26 41 -6 41 C-5.31004089 35.64264808 -4.61618388 30.28582098 -3.91870117 24.92944336 C-3.68194957 23.10699148 -3.44626588 21.28440054 -3.21166992 19.46166992 C-2.87438776 16.84256337 -2.533275 14.22398006 -2.19140625 11.60546875 C-2.08719864 10.78974899 -1.98299103 9.97402924 -1.87562561 9.1335907 C-1.45874723 5.96386697 -1.01365251 3.04095753 0 0 Z " fill="#F9121B" transform="translate(345,361)"/>
<path d="M0 0 C3.3 0 6.6 0 10 0 C10 2.64 10 5.28 10 8 C10.90492187 7.93039062 10.90492187 7.93039062 11.828125 7.859375 C18.39685864 7.56272251 18.39685864 7.56272251 21.5 9.8125 C24.72329122 14.51313303 24.21867444 19.33444303 24.25 24.8125 C24.270625 25.70259766 24.29125 26.59269531 24.3125 27.50976562 C24.34361779 32.75700242 23.99532832 36.48519688 21 41 C18.59454362 42.20272819 17.05003047 42.10071472 14.375 42.0625 C13.14910156 42.04896484 13.14910156 42.04896484 11.8984375 42.03515625 C11.27195312 42.02355469 10.64546875 42.01195312 10 42 C10.01160156 42.63808594 10.02320312 43.27617188 10.03515625 43.93359375 C10.04417969 44.75988281 10.05320312 45.58617187 10.0625 46.4375 C10.07410156 47.26121094 10.08570312 48.08492187 10.09765625 48.93359375 C10 51 10 51 9 52 C5.99668982 52.14193337 3.00782866 52.04236378 0 52 C-0.33 48.7 -0.66 45.4 -1 42 C-2.8253125 42.1546875 -2.8253125 42.1546875 -4.6875 42.3125 C-7.87347668 42.58249802 -8.99300777 42.00453144 -11.73046875 40.23046875 C-15.1646425 35.34223864 -14.72938031 30.83137996 -14.625 25 C-14.64433594 23.91976562 -14.66367188 22.83953125 -14.68359375 21.7265625 C-14.65308564 16.78424833 -14.62483757 13.90181617 -11.76171875 9.76953125 C-8.85132139 7.90473634 -7.58113432 7.43424371 -4.1875 7.6875 C-3.39730469 7.73261719 -2.60710937 7.77773438 -1.79296875 7.82421875 C-1.20128906 7.88222656 -0.60960938 7.94023438 0 8 C0 5.36 0 2.72 0 0 Z M-3 16 C-4.41774838 17.18852855 -4.41774838 17.18852855 -4.09765625 20.59765625 C-4.0909822 22.08596867 -4.07902183 23.57426432 -4.0625 25.0625 C-4.05798828 25.82111328 -4.05347656 26.57972656 -4.04882812 27.36132812 C-4.0370068 29.24091871 -4.01907078 31.12046899 -4 33 C-2.68 33 -1.36 33 0 33 C0 27.72 0 22.44 0 17 C-0.99 16.67 -1.98 16.34 -3 16 Z M10 16 C10 21.94 10 27.88 10 34 C11.32 33.34 12.64 32.68 14 32 C14 27.38 14 22.76 14 18 C12.68 17.34 11.36 16.68 10 16 Z " fill="#303030" transform="translate(109,661)"/>
<path d="M0 0 C4.29 0 8.58 0 13 0 C14.32 5.28 15.64 10.56 17 16 C18.65 10.72 20.3 5.44 22 0 C25.96 0 29.92 0 34 0 C34 13.86 34 27.72 34 42 C30.7 42 27.4 42 24 42 C24 37.71 24 33.42 24 29 C23.34 31.64 22.68 34.28 22 37 C19.03 37 16.06 37 13 37 C12.34 35.02 11.68 33.04 11 31 C10.67 34.63 10.34 38.26 10 42 C6.7 42 3.4 42 0 42 C0 28.14 0 14.28 0 0 Z " fill="#303030" transform="translate(240,542)"/>
<path d="M0 0 C3.96 0 7.92 0 12 0 C13.65 5.61 15.3 11.22 17 17 C18.32 11.39 19.64 5.78 21 0 C25.29 0 29.58 0 34 0 C34 13.86 34 27.72 34 42 C30.7 42 27.4 42 24 42 C23.505 37.05 23.505 37.05 23 32 C22.01 34.475 22.01 34.475 21 37 C18.03 37 15.06 37 12 37 C11.34 34.03 10.68 31.06 10 28 C10 32.62 10 37.24 10 42 C6.7 42 3.4 42 0 42 C0 28.14 0 14.28 0 0 Z " fill="#303030" transform="translate(280,542)"/>
<path d="M0 0 C3.63 0 7.26 0 11 0 C11.33 7.26 11.66 14.52 12 22 C14.14710931 18.70915931 16.29274173 15.41737239 18.4375 12.125 C19.04916016 11.18785156 19.66082031 10.25070312 20.29101562 9.28515625 C20.87431641 8.38925781 21.45761719 7.49335938 22.05859375 6.5703125 C22.59798584 5.74289551 23.13737793 4.91547852 23.69311523 4.06298828 C25.01741396 2.04922424 25.01741396 2.04922424 26 0 C29.96 0 33.92 0 38 0 C38 13.53 38 27.06 38 41 C34.37 41 30.74 41 27 41 C26.505 29.615 26.505 29.615 26 18 C22.55612738 23.69623825 22.55612738 23.69623825 19.12011719 29.3972168 C18.2019449 30.90779655 17.26674478 32.40810588 16.31835938 33.89990234 C15.25801818 35.5889866 14.27906147 37.32901987 13.328125 39.08203125 C11 41 11 41 0 41 C0 27.47 0 13.94 0 0 Z " fill="#F9111B" transform="translate(262,361)"/>
<path d="M0 0 C3.3 0 6.6 0 10 0 C10 0.99 10 1.98 10 3 C11.0725 3.0825 12.145 3.165 13.25 3.25 C17.30720568 4.06144114 18.49459594 4.82006408 21 8 C22.98683397 11.97366795 22.27256128 16.94320438 22.3125 21.3125 C22.34150391 22.35857422 22.37050781 23.40464844 22.40039062 24.48242188 C22.46391388 32.15896237 22.46391388 32.15896237 20.24609375 36.1796875 C17.87694121 38.09973112 16.75407752 38.66229612 13.75 38.8125 C12.5125 38.874375 11.275 38.93625 10 39 C10 39.99 10 40.98 10 42 C6.7 42 3.4 42 0 42 C0 41.01 0 40.02 0 39 C-1.953125 38.90234375 -3.90625 38.8046875 -5.859375 38.70703125 C-9.33460406 37.55919099 -10.21975847 36.21858237 -12 33 C-12.61254564 28.99112787 -12.60356671 25.04869431 -12.5625 21 C-12.59827148 19.37964844 -12.59827148 19.37964844 -12.63476562 17.7265625 C-12.62020506 9.86385705 -12.62020506 9.86385705 -9.703125 5.80078125 C-6.43600572 3.62427549 -3.88619432 3.22859967 0 3 C0 2.01 0 1.02 0 0 Z M-1 12 C-2.41774838 13.18852855 -2.41774838 13.18852855 -2.09765625 16.59765625 C-2.0909822 18.08596867 -2.07902183 19.57426432 -2.0625 21.0625 C-2.05798828 21.82111328 -2.05347656 22.57972656 -2.04882812 23.36132812 C-2.0370068 25.24091871 -2.01907078 27.12046899 -2 29 C-1.34 29.33 -0.68 29.66 0 30 C0 24.06 0 18.12 0 12 C-0.33 12 -0.66 12 -1 12 Z M10 12 C10 17.94 10 23.88 10 30 C10.66 29.67 11.32 29.34 12 29 C12 23.72 12 18.44 12 13 C11.34 12.67 10.68 12.34 10 12 Z " fill="#303030" transform="translate(172,601)"/>
<path d="M0 0 C3.63 0 7.26 0 11 0 C11.33 3.96 11.66 7.92 12 12 C13.32 8.04 14.64 4.08 16 0 C19.96 0 23.92 0 28 0 C28 13.86 28 27.72 28 42 C24.7 42 21.4 42 18 42 C17.67 37.38 17.34 32.76 17 28 C15.35 32.62 13.7 37.24 12 42 C8.04 42 4.08 42 0 42 C0 28.14 0 14.28 0 0 Z M10 15 C11 18 11 18 11 18 Z " fill="#303030" transform="translate(198,601)"/>
<path d="M0 0 C4.95 0 9.9 0 15 0 C16.99578981 5.67761253 18.98956591 11.3559265 20.98144531 17.03491211 C21.65992242 18.96837671 22.33895801 20.90164543 23.01855469 22.8347168 C23.99299239 25.60675059 24.96544618 28.37947327 25.9375 31.15234375 C26.24373291 32.02213364 26.54996582 32.89192352 26.86547852 33.78807068 C29 39.88612829 29 39.88612829 29 41 C25.04 41 21.08 41 17 41 C15 37 15 37 15 34 C10.05 34 5.1 34 0 34 C-0.66 36.31 -1.32 38.62 -2 41 C-5.96 41 -9.92 41 -14 41 C-11.6871087 31.86684222 -8.6014386 23.12483085 -5.3125 14.3125 C-4.79579464 12.91747665 -4.27951574 11.52229526 -3.76367188 10.12695312 C-2.51478552 6.74914654 -1.25725822 3.37474575 0 0 Z " fill="#F9111C" transform="translate(407,361)"/>
<path d="M0 0 C3.3 0 6.6 0 10 0 C10.33 3.96 10.66 7.92 11 12 C12.32 8.04 13.64 4.08 15 0 C19.29 0 23.58 0 28 0 C28 13.86 28 27.72 28 42 C24.37 42 20.74 42 17 42 C17 36.72 17 31.44 17 26 C15.02 31.28 13.04 36.56 11 42 C7.37 42 3.74 42 0 42 C0 28.14 0 14.28 0 0 Z " fill="#303030" transform="translate(677,542)"/>
<path d="M0 0 C3.63 0 7.26 0 11 0 C11 4.62 11 9.24 11 14 C12.65 9.38 14.3 4.76 16 0 C19.96 0 23.92 0 28 0 C28 13.86 28 27.72 28 42 C24.7 42 21.4 42 18 42 C17.67 37.38 17.34 32.76 17 28 C15.35 32.62 13.7 37.24 12 42 C8.04 42 4.08 42 0 42 C0 28.14 0 14.28 0 0 Z " fill="#303030" transform="translate(262,601)"/>
<path d="M0 0 C4.29 0 8.58 0 13 0 C14.32 3.96 15.64 7.92 17 12 C18.65 8.04 20.3 4.08 22 0 C25.96 0 29.92 0 34 0 C34 11.22 34 22.44 34 34 C30.7 34 27.4 34 24 34 C23.67 31.03 23.34 28.06 23 25 C22.34 26.32 21.68 27.64 21 29 C18.36 29 15.72 29 13 29 C12.34 26.69 11.68 24.38 11 22 C11 25.96 11 29.92 11 34 C7.37 34 3.74 34 0 34 C0 22.78 0 11.56 0 0 Z " fill="#303030" transform="translate(562,669)"/>
<path d="M0 0 C3.3 0 6.6 0 10 0 C10 10.89 10 21.78 10 33 C11.98 33 13.96 33 16 33 C16 22.11 16 11.22 16 0 C19.3 0 22.6 0 26 0 C26 10.89 26 21.78 26 33 C27.65 33.33 29.3 33.66 31 34 C31 38.29 31 42.58 31 47 C27.37 47 23.74 47 20 47 C20 45.35 20 43.7 20 42 C13.4 42 6.8 42 0 42 C0 28.14 0 14.28 0 0 Z " fill="#303030" transform="translate(230,601)"/>
<path d="M0 0 C3.96 0 7.92 0 12 0 C12.71614583 1.953125 13.43229167 3.90625 14.1484375 5.859375 C14.9826353 7.95634928 15.99072431 9.98144861 17 12 C18.32 8.04 19.64 4.08 21 0 C25.29 0 29.58 0 34 0 C34 11.22 34 22.44 34 34 C30.37 34 26.74 34 23 34 C23 30.04 23 26.08 23 22 C22.34 24.31 21.68 26.62 21 29 C18.03 29 15.06 29 12 29 C11.67 27.68 11.34 26.36 11 25 C10.67 27.97 10.34 30.94 10 34 C6.7 34 3.4 34 0 34 C0 22.78 0 11.56 0 0 Z " fill="#303030" transform="translate(195,669)"/>
<path d="M0 0 C4.29 0 8.58 0 13 0 C16 8.5 16 8.5 16 13 C16.66 13 17.32 13 18 13 C18.12117187 12.39671875 18.24234375 11.7934375 18.3671875 11.171875 C18.53476562 10.37265625 18.70234375 9.5734375 18.875 8.75 C19.03742187 7.96109375 19.19984375 7.1721875 19.3671875 6.359375 C20 4 20 4 22 0 C25.96 0 29.92 0 34 0 C34 11.22 34 22.44 34 34 C30.7 34 27.4 34 24 34 C23.505 29.05 23.505 29.05 23 24 C22.01 26.475 22.01 26.475 21 29 C18.36 29 15.72 29 13 29 C12.34 27.02 11.68 25.04 11 23 C10.67 26.63 10.34 30.26 10 34 C6.7 34 3.4 34 0 34 C0 22.78 0 11.56 0 0 Z " fill="#303030" transform="translate(524,669)"/>
<path d="M0 0 C3.50625 -0.061875 7.0125 -0.12375 10.625 -0.1875 C11.71893066 -0.21481201 12.81286133 -0.24212402 13.93994141 -0.27026367 C20.72371858 -0.32813299 25.0564362 0.52120943 30.375 5 C32.86289087 9.59302929 32.73506976 13.89201523 32 19 C30.25800827 22.75198219 28.74725276 24.45322969 25.4375 26.875 C20.50617958 28.48888668 16.17850193 28.18945739 11 28 C11 32.29 11 36.58 11 41 C7.37 41 3.74 41 0 41 C0 27.47 0 13.94 0 0 Z " fill="#F9111C" transform="translate(306,361)"/>
<path d="M0 0 C3.63 0 7.26 0 11 0 C11 5.28 11 10.56 11 16 C12.65 16 14.3 16 16 16 C16 10.72 16 5.44 16 0 C19.63 0 23.26 0 27 0 C27.02464638 5.82071622 27.0428343 11.64140234 27.05493164 17.4621582 C27.05997267 19.44393441 27.06680538 21.42570689 27.07543945 23.4074707 C27.08751515 26.24952109 27.09323045 29.09152247 27.09765625 31.93359375 C27.10281754 32.82525742 27.10797882 33.71692108 27.11329651 34.63560486 C27.11349177 36.75740601 27.0621003 38.8791078 27 41 C26 42 26 42 23.71484375 42.09765625 C21.14322917 42.06510417 18.57161458 42.03255208 16 42 C16 36.39 16 30.78 16 25 C14.35 25 12.7 25 11 25 C11 30.61 11 36.22 11 42 C7.37 42 3.74 42 0 42 C0 28.14 0 14.28 0 0 Z " fill="#303030" transform="translate(645,542)"/>
<path d="M0 0 C1.13308594 0.17144531 2.26617188 0.34289062 3.43359375 0.51953125 C6.5625 1.1875 6.5625 1.1875 10.5625 3.1875 C10.5625 7.4775 10.5625 11.7675 10.5625 16.1875 C8.5625 15.1875 6.5625 14.1875 4.5625 13.1875 C-0.18025933 12.72099908 -2.36610438 12.51787774 -6.4375 15.0625 C-9.23699907 19.4367173 -9.35234582 23.12592314 -8.4375 28.1875 C-6.4448112 31.32981695 -5.14642541 31.96694543 -1.625 33.0625 C2.13127233 33.2098048 5.02125345 32.39152383 8.5625 31.1875 C8.5625 30.5275 8.5625 29.8675 8.5625 29.1875 C9.2225 29.1875 9.8825 29.1875 10.5625 29.1875 C10.69746251 31.28991603 10.79447307 33.3947961 10.875 35.5 C10.93300781 36.67175781 10.99101563 37.84351563 11.05078125 39.05078125 C10.5625 42.1875 10.5625 42.1875 8.4375 44.078125 C2.66895492 46.30403098 -3.9065661 46.14736553 -9.8515625 44.53125 C-16.08337607 41.74016747 -20.25806305 37.08248161 -22.8125 30.8125 C-24.42161032 21.47966013 -23.31470389 14.3604476 -18.125 6.375 C-13.48022508 0.21470939 -7.27503186 -1.14782001 0 0 Z " fill="#E61019" transform="translate(533.4375,358.8125)"/>
<path d="M0 0 C8.91 0 17.82 0 27 0 C27 13.86 27 27.72 27 42 C23.37 42 19.74 42 16 42 C16 31.11 16 20.22 16 9 C14.02 9 12.04 9 10 9 C10 19.89 10 30.78 10 42 C6.7 42 3.4 42 0 42 C0 28.14 0 14.28 0 0 Z " fill="#303030" transform="translate(508,601)"/>
<path d="M0 0 C3.63 0 7.26 0 11 0 C11.33 4.29 11.66 8.58 12 13 C13.65 8.71 15.3 4.42 17 0 C20.63 0 24.26 0 28 0 C27.02324827 5.04655058 25.91358882 9.30165167 23.6875 13.9375 C21.6822535 18.76798228 22.11437562 21.5795718 23.92578125 26.40234375 C24.28027344 27.25957031 24.63476562 28.11679687 25 29 C25.73520662 30.99778759 26.46440913 32.99779531 27.1875 35 C27.53167969 35.9075 27.87585938 36.815 28.23046875 37.75 C29 40 29 40 29 42 C25.37 42 21.74 42 18 42 C16.02 37.05 14.04 32.1 12 27 C11.67 31.95 11.34 36.9 11 42 C7.37 42 3.74 42 0 42 C0 28.14 0 14.28 0 0 Z " fill="#303030" transform="translate(437,661)"/>
<path d="M0 0 C8.91 0 17.82 0 27 0 C27 13.86 27 27.72 27 42 C23.37 42 19.74 42 16 42 C16 30.78 16 19.56 16 8 C14.02 8 12.04 8 10 8 C10 19.22 10 30.44 10 42 C6.7 42 3.4 42 0 42 C0 28.14 0 14.28 0 0 Z " fill="#303030" transform="translate(530,542)"/>
<path d="M0 0 C5.44239426 2.27328327 9.61208552 5.52769598 12 11 C12.74349204 16.63040323 12.801592 21.33743881 10.3125 26.5 C5.60092314 31.5935966 2.52854179 33.73369496 -4.3125 34.25 C-9.08435545 33.92648438 -12.95173637 32.93212497 -16.515625 29.5703125 C-20.94310497 24.45580978 -21.36406958 20.24580095 -21.26953125 13.72265625 C-20.80101414 8.98995444 -18.81513284 6.54060936 -15.26953125 3.53125 C-10.38526585 0.02159821 -5.94435342 -1.28638713 0 0 Z " fill="#FFD300" transform="translate(538,135)"/>
<path d="M0 0 C3.02286884 1.38548155 4.66871425 2.66871425 7 5 C8.80582484 10.20080424 8.1844212 16.00957157 8.1875 21.4375 C8.19974609 22.56994141 8.21199219 23.70238281 8.22460938 24.86914062 C8.22750977 26.50979492 8.22750977 26.50979492 8.23046875 28.18359375 C8.23457764 29.17931396 8.23868652 30.17503418 8.24291992 31.20092773 C7.91752034 34.95038121 6.95899176 37.83253177 4.5625 40.75 C0.27551091 44.17959127 -5.82421905 43.42436857 -11 43 C-14.00855738 41.7720174 -15.36404601 40.98836969 -17.10229492 38.28686523 C-19.07879247 33.25182239 -18.32593725 27.39708953 -18.3125 22.0625 C-18.32861328 20.78697266 -18.34472656 19.51144531 -18.36132812 18.19726562 C-18.36197266 16.96814453 -18.36261719 15.73902344 -18.36328125 14.47265625 C-18.36775269 12.79055054 -18.36775269 12.79055054 -18.37231445 11.07446289 C-17.84247739 6.69922474 -16.22033138 4.07241242 -12.9375 1.1875 C-8.61761626 -0.55883598 -4.5982749 -0.57478436 0 0 Z M-7 9 C-8.21445591 11.42891182 -8.12924198 13.00719443 -8.1328125 15.71875 C-8.13410156 16.65074219 -8.13539063 17.58273437 -8.13671875 18.54296875 C-8.13285156 19.51878906 -8.12898437 20.49460937 -8.125 21.5 C-8.12886719 22.47582031 -8.13273438 23.45164062 -8.13671875 24.45703125 C-8.13542969 25.38902344 -8.13414062 26.32101562 -8.1328125 27.28125 C-8.13168457 28.13783203 -8.13055664 28.99441406 -8.12939453 29.87695312 C-8.13586446 32.05491534 -8.13586446 32.05491534 -7 34 C-5.68 34 -4.36 34 -3 34 C-3 25.75 -3 17.5 -3 9 C-4.32 9 -5.64 9 -7 9 Z " fill="#303030" transform="translate(145,541)"/>
<path d="M0 0 C3.3 0 6.6 0 10 0 C10 5.28 10 10.56 10 16 C11.98 16 13.96 16 16 16 C16 10.72 16 5.44 16 0 C19.3 0 22.6 0 26 0 C26 13.86 26 27.72 26 42 C22.7 42 19.4 42 16 42 C16 36.39 16 30.78 16 25 C14.02 25 12.04 25 10 25 C10 30.61 10 36.22 10 42 C6.7 42 3.4 42 0 42 C0 28.14 0 14.28 0 0 Z " fill="#303030" transform="translate(319,542)"/>
<path d="M0 0 C1.01964844 -0.01675781 2.03929688 -0.03351562 3.08984375 -0.05078125 C6.52028245 0.3684445 8.33396596 1.21034247 11.0625 3.3125 C14.4932829 8.54903672 13.39013369 15.24192343 13.375 21.25 C13.39111328 22.52552734 13.40722656 23.80105469 13.42382812 25.11523438 C13.42447266 26.34435547 13.42511719 27.57347656 13.42578125 28.83984375 C13.42876221 29.96124756 13.43174316 31.08265137 13.43481445 32.23803711 C13.01562596 35.69957199 12.1512117 37.54293245 10.0625 40.3125 C5.07702113 43.364834 1.14243313 43.75641007 -4.62890625 42.95703125 C-8.15184153 41.97347064 -9.83134401 40.23394218 -11.9375 37.3125 C-13.62198434 32.24349998 -13.16229203 26.77791798 -13.1875 21.5 C-13.208125 20.43201172 -13.22875 19.36402344 -13.25 18.26367188 C-13.27997651 12.20467048 -13.11542705 7.55894264 -9.9375 2.3125 C-6.87752232 -0.07625677 -3.7987987 0.01437124 0 0 Z M-0.9375 8.3125 C-2.19931095 9.35042772 -2.19931095 9.35042772 -2.05102539 11.62915039 C-2.04578857 12.62938232 -2.04055176 13.62961426 -2.03515625 14.66015625 C-2.03193359 15.73974609 -2.02871094 16.81933594 -2.02539062 17.93164062 C-2.01701172 19.06794922 -2.00863281 20.20425781 -2 21.375 C-1.99548828 22.51517578 -1.99097656 23.65535156 -1.98632812 24.83007812 C-1.97449747 27.65760351 -1.9580141 30.4850264 -1.9375 33.3125 C-0.6175 33.6425 0.7025 33.9725 2.0625 34.3125 C3.31498502 31.80752996 3.17624406 30.10396726 3.16015625 27.3046875 C3.15693359 26.31855469 3.15371094 25.33242188 3.15039062 24.31640625 C3.14201172 23.28386719 3.13363281 22.25132812 3.125 21.1875 C3.11823242 19.62708984 3.11823242 19.62708984 3.11132812 18.03515625 C3.09951952 15.46088038 3.08305075 12.88671854 3.0625 10.3125 C1.7425 9.6525 0.4225 8.9925 -0.9375 8.3125 Z " fill="#303030" transform="translate(79.9375,600.6875)"/>
<path d="M0 0 C3.3 0 6.6 0 10 0 C10 5.61 10 11.22 10 17 C11.98 17 13.96 17 16 17 C16 11.39 16 5.78 16 0 C19.3 0 22.6 0 26 0 C26 13.86 26 27.72 26 42 C22.7 42 19.4 42 16 42 C16 36.39 16 30.78 16 25 C14.02 25 12.04 25 10 25 C10 30.61 10 36.22 10 42 C6.7 42 3.4 42 0 42 C0 28.14 0 14.28 0 0 Z " fill="#303030" transform="translate(621,601)"/>
<path d="M0 0 C3.3 0 6.6 0 10 0 C10 5.61 10 11.22 10 17 C11.98 17 13.96 17 16 17 C16 11.39 16 5.78 16 0 C19.3 0 22.6 0 26 0 C26 13.86 26 27.72 26 42 C22.7 42 19.4 42 16 42 C16 36.39 16 30.78 16 25 C14.02 25 12.04 25 10 25 C10 30.61 10 36.22 10 42 C6.7 42 3.4 42 0 42 C0 28.14 0 14.28 0 0 Z " fill="#303030" transform="translate(383,601)"/>
<path d="M0 0 C8.58 0 17.16 0 26 0 C26 13.86 26 27.72 26 42 C22.7 42 19.4 42 16 42 C16 30.78 16 19.56 16 8 C14.02 8 12.04 8 10 8 C10 19.22 10 30.44 10 42 C6.7 42 3.4 42 0 42 C0 28.14 0 14.28 0 0 Z " fill="#303030" transform="translate(69,542)"/>
<path d="M0 0 C2.5625 1.6875 2.5625 1.6875 4.5625 4.6875 C4.99537617 9.07696786 4.9765628 13.47566033 4.98803711 17.88378906 C4.99992412 20.0486808 5.04909944 22.21071071 5.09960938 24.375 C5.10907566 25.75779864 5.11630972 27.14061473 5.12109375 28.5234375 C5.13454834 29.77688965 5.14800293 31.0303418 5.16186523 32.32177734 C4.40611436 36.5656802 2.85217062 38.00156099 -0.4375 40.6875 C-4.35770441 42.64760221 -9.15361576 42.0403633 -13.4375 41.6875 C-17.17780185 40.08451349 -18.16908465 39.09012302 -20.4375 35.6875 C-20.87037617 31.29803214 -20.8515628 26.89933967 -20.86303711 22.49121094 C-20.87492412 20.3263192 -20.92409944 18.16428929 -20.97460938 16 C-20.98407566 14.61720136 -20.99130972 13.23438527 -20.99609375 11.8515625 C-21.00954834 10.59811035 -21.02300293 9.3446582 -21.03686523 8.05322266 C-20.27780894 3.79075825 -18.778446 2.35103192 -15.4375 -0.3125 C-10.14838926 -2.07553691 -5.20480366 -1.98728867 0 0 Z M-9.4375 7.6875 C-10.6880313 8.71464661 -10.6880313 8.71464661 -10.55102539 10.91235352 C-10.54578857 11.87069092 -10.54055176 12.82902832 -10.53515625 13.81640625 C-10.53193359 14.85087891 -10.52871094 15.88535156 -10.52539062 16.95117188 C-10.51701172 18.03978516 -10.50863281 19.12839844 -10.5 20.25 C-10.49548828 21.34248047 -10.49097656 22.43496094 -10.48632812 23.56054688 C-10.47449826 26.26958495 -10.45801543 28.97851599 -10.4375 31.6875 C-8.49146726 32.27820014 -8.49146726 32.27820014 -6.4375 32.6875 C-5.1869687 31.66035339 -5.1869687 31.66035339 -5.32397461 29.46264648 C-5.33182983 28.02514038 -5.33182983 28.02514038 -5.33984375 26.55859375 C-5.34306641 25.52412109 -5.34628906 24.48964844 -5.34960938 23.42382812 C-5.35798828 22.33521484 -5.36636719 21.24660156 -5.375 20.125 C-5.37951172 19.03251953 -5.38402344 17.94003906 -5.38867188 16.81445312 C-5.40050174 14.10541505 -5.41698457 11.39648401 -5.4375 8.6875 C-7.38353274 8.09679986 -7.38353274 8.09679986 -9.4375 7.6875 Z " fill="#303030" transform="translate(436.4375,542.3125)"/>
<path d="M0 0 C7.26 0 14.52 0 22 0 C22 2.64 22 5.28 22 8 C18.37 8 14.74 8 11 8 C11 9.65 11 11.3 11 13 C12.8253125 12.9071875 12.8253125 12.9071875 14.6875 12.8125 C18.58249203 12.80559399 20.87690125 13.53937675 24 16 C25.68460589 19.36921177 25.31092974 23.1109862 25.375 26.8125 C25.41238281 27.62009766 25.44976562 28.42769531 25.48828125 29.25976562 C25.55234517 33.60543506 25.42407256 35.43821315 22.7265625 39.01171875 C15.75359147 44.09659304 9.13762612 42 0 42 C0 28.14 0 14.28 0 0 Z M11 21 C11 24.96 11 28.92 11 33 C12.32 32.67 13.64 32.34 15 32 C15 28.7 15 25.4 15 22 C13.68 21.67 12.36 21.34 11 21 Z " fill="#303030" transform="translate(445,542)"/>
<path d="M0 0 C2.79094576 1.90601174 3.40731287 2.65493935 4.5625 5.75 C4.93649979 9.88527407 4.89184667 14.01626291 4.87817383 18.16723633 C4.87501524 20.1777984 4.89848616 22.1868854 4.92382812 24.19726562 C4.92447266 25.47150391 4.92511719 26.74574219 4.92578125 28.05859375 C4.92876221 29.22189209 4.93174316 30.38519043 4.93481445 31.58374023 C4.52448675 35.07327465 3.63137558 36.94097181 1.5625 39.75 C-2.85955855 42.84450609 -8.27471224 42.25555488 -13.4375 41.75 C-17.17780185 40.14701349 -18.16908465 39.15262302 -20.4375 35.75 C-20.87037617 31.36053214 -20.8515628 26.96183967 -20.86303711 22.55371094 C-20.87492412 20.3888192 -20.92409944 18.22678929 -20.97460938 16.0625 C-20.98407566 14.67970136 -20.99130972 13.29688527 -20.99609375 11.9140625 C-21.00954834 10.66061035 -21.02300293 9.4071582 -21.03686523 8.11572266 C-20.27780894 3.85325825 -18.778446 2.41353192 -15.4375 -0.25 C-10.16142215 -2.00869262 -5.21907062 -1.89784386 0 0 Z M-9.4375 7.75 C-10.69931095 8.78792772 -10.69931095 8.78792772 -10.55102539 11.06665039 C-10.54578857 12.06688232 -10.54055176 13.06711426 -10.53515625 14.09765625 C-10.53193359 15.17724609 -10.52871094 16.25683594 -10.52539062 17.36914062 C-10.51701172 18.50544922 -10.50863281 19.64175781 -10.5 20.8125 C-10.49548828 21.95267578 -10.49097656 23.09285156 -10.48632812 24.26757812 C-10.47449747 27.09510351 -10.4580141 29.9225264 -10.4375 32.75 C-8.7875 32.42 -7.1375 32.09 -5.4375 31.75 C-5.4375 24.16 -5.4375 16.57 -5.4375 8.75 C-6.7575 8.42 -8.0775 8.09 -9.4375 7.75 Z " fill="#303030" transform="translate(370.4375,542.25)"/>
<path d="M0 0 C1.10988281 -0.03996094 2.21976562 -0.07992187 3.36328125 -0.12109375 C7.48370096 0.5712917 10.06768788 2.2496375 12.6875 5.4375 C13.44799805 8.86328125 13.44799805 8.86328125 13.44921875 12.75 C13.45258743 13.44134033 13.45595612 14.13268066 13.45942688 14.8449707 C13.45912905 16.30069448 13.44397448 17.75648273 13.41479492 19.21191406 C13.37509303 21.43229701 13.3940966 23.64670544 13.41992188 25.8671875 C13.412362 27.28648135 13.40140772 28.70576203 13.38671875 30.125 C13.37471436 31.40761719 13.36270996 32.69023438 13.3503418 34.01171875 C12.52586281 38.2728934 11.02842292 39.75550477 7.6875 42.4375 C3.09713975 43.97254008 -1.71731499 43.99185984 -6.25 42.25 C-9.33466857 40.42437982 -10.54572489 39.48035123 -12.3125 36.4375 C-12.70068359 33.40063477 -12.70068359 33.40063477 -12.7109375 29.87890625 C-12.71480469 28.60595703 -12.71867187 27.33300781 -12.72265625 26.02148438 C-12.71637207 25.36108154 -12.71008789 24.70067871 -12.70361328 24.02026367 C-12.68757625 22.00956033 -12.70346277 20.00087484 -12.72265625 17.99023438 C-12.71878906 16.71599609 -12.71492188 15.44175781 -12.7109375 14.12890625 C-12.70755371 12.96560791 -12.70416992 11.80230957 -12.70068359 10.60375977 C-12.27062544 7.09594584 -11.42691097 5.2439847 -9.3125 2.4375 C-5.81804834 0.10786556 -4.14390437 0.08125303 0 0 Z M-0.3125 8.4375 C-2.52369253 10.23149258 -2.52369253 10.23149258 -2.55541992 12.65234375 C-2.55131104 13.55082031 -2.54720215 14.44929687 -2.54296875 15.375 C-2.54103516 16.35210938 -2.53910156 17.32921875 -2.53710938 18.3359375 C-2.52486328 19.35945312 -2.51261719 20.38296875 -2.5 21.4375 C-2.49935547 22.46101562 -2.49871094 23.48453125 -2.49804688 24.5390625 C-2.68530063 29.65304855 -2.68530063 29.65304855 -1.3125 34.4375 C0.0075 34.1075 1.3275 33.7775 2.6875 33.4375 C2.6875 25.5175 2.6875 17.5975 2.6875 9.4375 C1.6975 9.1075 0.7075 8.7775 -0.3125 8.4375 Z " fill="#303030" transform="translate(480.3125,600.5625)"/>
<path d="M0 0 C1.10988281 -0.03996094 2.21976562 -0.07992187 3.36328125 -0.12109375 C7.48370096 0.5712917 10.06768788 2.2496375 12.6875 5.4375 C13.44799805 8.86328125 13.44799805 8.86328125 13.44921875 12.75 C13.45258743 13.44134033 13.45595612 14.13268066 13.45942688 14.8449707 C13.45912905 16.30069448 13.44397448 17.75648273 13.41479492 19.21191406 C13.37509303 21.43229701 13.3940966 23.64670544 13.41992188 25.8671875 C13.412362 27.28648135 13.40140772 28.70576203 13.38671875 30.125 C13.37471436 31.40761719 13.36270996 32.69023438 13.3503418 34.01171875 C12.52586281 38.2728934 11.02842292 39.75550477 7.6875 42.4375 C3.09713975 43.97254008 -1.71731499 43.99185984 -6.25 42.25 C-9.33466857 40.42437982 -10.54572489 39.48035123 -12.3125 36.4375 C-12.70068359 33.40063477 -12.70068359 33.40063477 -12.7109375 29.87890625 C-12.71480469 28.60595703 -12.71867187 27.33300781 -12.72265625 26.02148438 C-12.71637207 25.36108154 -12.71008789 24.70067871 -12.70361328 24.02026367 C-12.68757625 22.00956033 -12.70346277 20.00087484 -12.72265625 17.99023438 C-12.71878906 16.71599609 -12.71492188 15.44175781 -12.7109375 14.12890625 C-12.70755371 12.96560791 -12.70416992 11.80230957 -12.70068359 10.60375977 C-12.27062544 7.09594584 -11.42691097 5.2439847 -9.3125 2.4375 C-5.81804834 0.10786556 -4.14390437 0.08125303 0 0 Z M-0.3125 8.4375 C-2.52369253 10.23149258 -2.52369253 10.23149258 -2.55541992 12.65234375 C-2.55131104 13.55082031 -2.54720215 14.44929687 -2.54296875 15.375 C-2.54103516 16.35210938 -2.53910156 17.32921875 -2.53710938 18.3359375 C-2.52486328 19.35945312 -2.51261719 20.38296875 -2.5 21.4375 C-2.49935547 22.46101562 -2.49871094 23.48453125 -2.49804688 24.5390625 C-2.68530063 29.65304855 -2.68530063 29.65304855 -1.3125 34.4375 C0.0075 34.1075 1.3275 33.7775 2.6875 33.4375 C2.6875 25.5175 2.6875 17.5975 2.6875 9.4375 C1.6975 9.1075 0.7075 8.7775 -0.3125 8.4375 Z " fill="#303030" transform="translate(425.3125,600.5625)"/>
<path d="M0 0 C1.13050781 -0.03738281 2.26101562 -0.07476563 3.42578125 -0.11328125 C7.33054057 0.39644182 8.90898129 1.58459183 11.6875 4.3125 C13.88161207 8.70072413 12.99701422 14.55949878 13.03759766 19.43334961 C13.05414004 20.88924158 13.08140836 22.3450529 13.11962891 23.80053711 C13.17458123 25.90521123 13.19629616 28.00798507 13.2109375 30.11328125 C13.23075684 31.37309814 13.25057617 32.63291504 13.27099609 33.9309082 C12.53402461 38.20195089 11.02086181 39.63878837 7.6875 42.3125 C3.09713975 43.84754008 -1.71731499 43.86685984 -6.25 42.125 C-9.34087493 40.29570667 -10.5476528 39.36509533 -12.3125 36.3125 C-12.86437404 32.03922757 -12.78542385 27.77422418 -12.75854492 23.46801758 C-12.75003908 21.38457283 -12.77880093 19.30387689 -12.81054688 17.22070312 C-12.80990234 15.90134766 -12.80925781 14.58199219 -12.80859375 13.22265625 C-12.81044678 12.01746338 -12.8122998 10.81227051 -12.81420898 9.57055664 C-12.22002094 5.71194863 -11.02165389 4.06903328 -8.3125 1.3125 C-5.51518195 -0.08615903 -3.11965441 0.06712733 0 0 Z M-0.3125 8.3125 C-2.54381867 10.1201787 -2.54381867 10.1201787 -2.53955078 12.65087891 C-2.52907715 13.60397949 -2.51860352 14.55708008 -2.5078125 15.5390625 C-2.50136719 16.5703125 -2.49492187 17.6015625 -2.48828125 18.6640625 C-2.47152344 19.74429688 -2.45476562 20.82453125 -2.4375 21.9375 C-2.42847656 23.02546875 -2.41945312 24.1134375 -2.41015625 25.234375 C-2.38653409 27.92730152 -2.35359556 30.61979255 -2.3125 33.3125 C-0.36646726 33.90320014 -0.36646726 33.90320014 1.6875 34.3125 C2.94931095 33.27457228 2.94931095 33.27457228 2.80102539 30.99584961 C2.79578857 29.99561768 2.79055176 28.99538574 2.78515625 27.96484375 C2.78193359 26.88525391 2.77871094 25.80566406 2.77539062 24.69335938 C2.76701172 23.55705078 2.75863281 22.42074219 2.75 21.25 C2.74548828 20.10982422 2.74097656 18.96964844 2.73632812 17.79492188 C2.72449747 14.96739649 2.7080141 12.1399736 2.6875 9.3125 C1.6975 8.9825 0.7075 8.6525 -0.3125 8.3125 Z " fill="#303030" transform="translate(143.3125,600.6875)"/>
<path d="M0 0 C3.22868746 -0.14584064 6.45652365 -0.23424106 9.6875 -0.3125 C10.59951172 -0.35439453 11.51152344 -0.39628906 12.45117188 -0.43945312 C17.00299524 -0.52221355 19.28699853 -0.49904493 23.10302734 2.171875 C25.19868001 5.29620453 25.64190545 6.84011546 25.6640625 10.5625 C25.67050781 11.60664062 25.67695312 12.65078125 25.68359375 13.7265625 C25.66425781 14.80679688 25.64492188 15.88703125 25.625 17 C25.65400391 18.62035156 25.65400391 18.62035156 25.68359375 20.2734375 C25.65308564 25.21575167 25.62483757 28.09818383 22.76171875 32.23046875 C18.52202118 34.9469935 15.93594073 34.36835379 11 34 C10.67 37.3 10.34 40.6 10 44 C3.06640625 44.09765625 3.06640625 44.09765625 1 44 C0 43 0 43 -0.12025452 41.24729919 C-0.11803391 40.48562943 -0.11581329 39.72395966 -0.11352539 38.93920898 C-0.11344986 38.07839218 -0.11337433 37.21757538 -0.11329651 36.33067322 C-0.10813522 35.39526199 -0.10297394 34.45985077 -0.09765625 33.49609375 C-0.0962413 32.54307877 -0.09482635 31.59006378 -0.09336853 30.60816956 C-0.08775152 27.55124835 -0.07519616 24.49439923 -0.0625 21.4375 C-0.05748719 19.37044376 -0.05292391 17.30338638 -0.04882812 15.23632812 C-0.03777656 10.15752412 -0.02050055 5.0787743 0 0 Z M12 8 C10.58225162 9.18852855 10.58225162 9.18852855 10.90234375 12.59765625 C10.9090178 14.08596867 10.92097817 15.57426432 10.9375 17.0625 C10.94201172 17.82111328 10.94652344 18.57972656 10.95117188 19.36132812 C10.9629932 21.24091871 10.98092922 23.12046899 11 25 C12.32 25 13.64 25 15 25 C15 19.72 15 14.44 15 9 C14.01 8.67 13.02 8.34 12 8 Z " fill="#303030" transform="translate(628,669)"/>
<path d="M0 0 C6.6 0 13.2 0 20 0 C25.63539308 5.63539308 25.20719641 9.32722222 25.25 16.8125 C25.270625 17.70259766 25.29125 18.59269531 25.3125 19.50976562 C25.34361779 24.75700242 24.99532832 28.48519688 22 33 C18.57067929 34.71466036 14.78283935 34.05404056 11 34 C10.67 37.3 10.34 40.6 10 44 C6.7 44 3.4 44 0 44 C0 29.48 0 14.96 0 0 Z M11 8 C9.51572064 10.96855873 9.79058463 13.69911659 9.75 17 C9.72421875 18.258125 9.6984375 19.51625 9.671875 20.8125 C9.78015625 21.864375 9.8884375 22.91625 10 24 C11.485 24.99 11.485 24.99 13 26 C15.34263547 24.09354599 15.34263547 24.09354599 15.23046875 20.8125 C15.21628906 19.554375 15.20210937 18.29625 15.1875 17 C15.18105469 15.741875 15.17460937 14.48375 15.16796875 13.1875 C15.2183004 10.10366209 15.2183004 10.10366209 14 8 C13.01 8 12.02 8 11 8 Z " fill="#303030" transform="translate(166,669)"/>
<path d="M0 0 C6.6 0 13.2 0 20 0 C25.6279159 5.6279159 25.18143819 9.3905437 25.1875 16.9375 C25.19974609 17.73607422 25.21199219 18.53464844 25.22460938 19.35742188 C25.23759239 24.58092105 24.86548271 28.47804243 21.66796875 32.80078125 C19.4443229 34.39951491 18.02098657 34.30526029 15.3125 34.1875 C13.889375 34.125625 12.46625 34.06375 11 34 C10.67 37.3 10.34 40.6 10 44 C6.7 44 3.4 44 0 44 C0 29.48 0 14.96 0 0 Z M11 8 C9.01215101 9.98784899 9.77002213 13.72700407 9.75 16.4375 C9.729375 17.13166016 9.70875 17.82582031 9.6875 18.54101562 C9.63549542 20.79999047 9.63549542 20.79999047 10 24 C11.485 24.99 11.485 24.99 13 26 C15.34263547 24.09354599 15.34263547 24.09354599 15.23046875 20.8125 C15.21628906 19.554375 15.20210938 18.29625 15.1875 17 C15.18105469 15.741875 15.17460937 14.48375 15.16796875 13.1875 C15.2183004 10.10366209 15.2183004 10.10366209 14 8 C13.01 8 12.02 8 11 8 Z " fill="#303030" transform="translate(467,669)"/>
<path d="M0 0 C4.29 0 8.58 0 13 0 C15.98729326 13.95644519 18.80943324 27.8948872 21 42 C17.37 42 13.74 42 10 42 C9.67 40.02 9.34 38.04 9 36 C7.02 35.67 5.04 35.34 3 35 C3.020625 35.969375 3.04125 36.93875 3.0625 37.9375 C3 41 3 41 2 42 C0.31391034 42.07205511 -1.37500659 42.08386068 -3.0625 42.0625 C-3.98160156 42.05347656 -4.90070313 42.04445313 -5.84765625 42.03515625 C-6.55792969 42.02355469 -7.26820313 42.01195312 -8 42 C-7.31282874 34.29509221 -5.90322694 26.76770904 -4.41601562 19.1862793 C-3.99632528 17.0437404 -3.58375184 14.89991255 -3.171875 12.75585938 C-2.90666773 11.39054379 -2.64105761 10.02530638 -2.375 8.66015625 C-2.01535156 6.81369507 -2.01535156 6.81369507 -1.6484375 4.92993164 C-1 2 -1 2 0 0 Z M6 16 C5.67 19.63 5.34 23.26 5 27 C5.99 27 6.98 27 8 27 C7.67 23.37 7.34 19.74 7 16 C6.67 16 6.34 16 6 16 Z " fill="#303030" transform="translate(216,542)"/>
<path d="M0 0 C4.29 0 8.58 0 13 0 C14.14176974 5.65950362 15.28103927 11.3195025 16.41796875 16.97998047 C16.80529769 18.90655199 17.19331609 20.83298503 17.58203125 22.75927734 C18.13982474 25.52405476 18.69515732 28.2893166 19.25 31.0546875 C19.42499023 31.9193161 19.59998047 32.7839447 19.78027344 33.67477417 C21 39.77225659 21 39.77225659 21 42 C17.37 42 13.74 42 10 42 C9.505 39.525 9.505 39.525 9 37 C7.02 36.67 5.04 36.34 3 36 C3.020625 36.804375 3.04125 37.60875 3.0625 38.4375 C3 41 3 41 2 42 C0.31391034 42.07205511 -1.37500659 42.08386068 -3.0625 42.0625 C-3.98160156 42.05347656 -4.90070312 42.04445313 -5.84765625 42.03515625 C-6.55792969 42.02355469 -7.26820313 42.01195312 -8 42 C-6.86401418 32.67474329 -5.2034757 23.47351102 -3.4375 14.25 C-3.21553955 13.08291504 -2.9935791 11.91583008 -2.76489258 10.71337891 C-2.55243896 9.61687012 -2.33998535 8.52036133 -2.12109375 7.390625 C-1.9295874 6.40094727 -1.73808105 5.41126953 -1.54077148 4.39160156 C-1 2 -1 2 0 0 Z M6 17 C4.82428549 20.67410785 4.92633254 24.16929183 5 28 C5.99 28 6.98 28 8 28 C7.67 24.37 7.34 20.74 7 17 C6.67 17 6.34 17 6 17 Z " fill="#303030" transform="translate(544,601)"/>
<path d="M0 0 C4.29 0 8.58 0 13 0 C15.64 13.86 18.28 27.72 21 42 C17.37 42 13.74 42 10 42 C9.505 39.525 9.505 39.525 9 37 C7.02 36.67 5.04 36.34 3 36 C3.020625 36.804375 3.04125 37.60875 3.0625 38.4375 C3 41 3 41 2 42 C0.31391034 42.07205511 -1.37500659 42.08386068 -3.0625 42.0625 C-3.98160156 42.05347656 -4.90070312 42.04445313 -5.84765625 42.03515625 C-6.55792969 42.02355469 -7.26820313 42.01195312 -8 42 C-7.29228978 34.14441657 -5.88040637 26.44593983 -4.41601562 18.70410156 C-3.99588361 16.47819086 -3.5836119 14.25091463 -3.171875 12.0234375 C-2.90671686 10.60928738 -2.64110867 9.19522156 -2.375 7.78125 C-2.01535156 5.8640918 -2.01535156 5.8640918 -1.6484375 3.90820312 C-1 1 -1 1 0 0 Z M6 17 C5.34 20.63 4.68 24.26 4 28 C5.32 28 6.64 28 8 28 C7.67 24.37 7.34 20.74 7 17 C6.67 17 6.34 17 6 17 Z " fill="#303030" transform="translate(712,601)"/>
<path d="M0 0 C3.3 0 6.6 0 10 0 C10.33 2.64 10.66 5.28 11 8 C12.32 5.36 13.64 2.72 15 0 C18.3 0 21.6 0 25 0 C25 11.22 25 22.44 25 34 C21.7 34 18.4 34 15 34 C14.67 31.36 14.34 28.72 14 26 C13.01 28.64 12.02 31.28 11 34 C7.37 34 3.74 34 0 34 C0 22.78 0 11.56 0 0 Z " fill="#303030" transform="translate(679,669)"/>
<path d="M0 0 C3.3 0 6.6 0 10 0 C10.33 2.31 10.66 4.62 11 7 C11.99 4.69 12.98 2.38 14 0 C17.63 0 21.26 0 25 0 C25 11.22 25 22.44 25 34 C21.7 34 18.4 34 15 34 C14.67 31.03 14.34 28.06 14 25 C12.02 29.455 12.02 29.455 10 34 C6.7 34 3.4 34 0 34 C0 22.78 0 11.56 0 0 Z " fill="#303030" transform="translate(137,669)"/>
<path d="M0 0 C3.22868746 -0.14584064 6.45652365 -0.23424106 9.6875 -0.3125 C10.59951172 -0.35439453 11.51152344 -0.39628906 12.45117188 -0.43945312 C19.27155332 -0.56346006 19.27155332 -0.56346006 23.09472656 2.39379883 C26.77918093 7.43372072 26.52217115 12.92976041 26 19 C25.15850322 22.38454955 24.03374569 25.11940182 21.3125 27.4375 C17.83201818 28.28410369 14.57773294 28.11925776 11 28 C11 32.62 11 37.24 11 42 C3.28515625 42.09765625 3.28515625 42.09765625 1 42 C0 41 0 41 -0.11352539 37.12280273 C-0.11336621 35.39305833 -0.10766849 33.66330919 -0.09765625 31.93359375 C-0.0962413 31.02497086 -0.09482635 30.11634796 -0.09336853 29.18019104 C-0.08775193 26.26592779 -0.07519665 23.35174019 -0.0625 20.4375 C-0.05748714 18.46679798 -0.05292386 16.49609476 -0.04882812 14.52539062 C-0.03777711 9.68356441 -0.02050138 4.84179505 0 0 Z M11 8 C11 11.96 11 15.92 11 20 C12.32 19.67 13.64 19.34 15 19 C15 15.7 15 12.4 15 9 C13.68 8.67 12.36 8.34 11 8 Z " fill="#303030" transform="translate(182,542)"/>
<path d="M0 0 C3.63 0 7.26 0 11 0 C11 7.26 11 14.52 11 22 C12.32 22 13.64 22 15 22 C16.17469444 19.65061112 16.20034889 18.04926795 16.31640625 15.4296875 C16.35830078 14.53378906 16.40019531 13.63789062 16.44335938 12.71484375 C16.48267578 11.77769531 16.52199219 10.84054687 16.5625 9.875 C16.60568359 8.93011719 16.64886719 7.98523438 16.69335938 7.01171875 C16.7995894 4.67465828 16.90031271 2.3373487 17 0 C20.3 0 23.6 0 27 0 C27 13.86 27 27.72 27 42 C23.7 42 20.4 42 17 42 C16.67 38.37 16.34 34.74 16 31 C14.5975 31.04125 13.195 31.0825 11.75 31.125 C8.25555582 31.22777777 5.83886417 31.1467444 3 29 C-0.57650813 23.0123628 -0.36082621 17.39333023 -0.1875 10.5625 C-0.17396484 9.54478516 -0.16042969 8.52707031 -0.14648438 7.47851562 C-0.11137072 4.98544619 -0.05757194 2.49265193 0 0 Z " fill="#303030" transform="translate(587,542)"/>
<path d="M0 0 C17 0 17 0 23 3 C25.53977065 6.80965598 25.36753945 9.95835509 25.375 14.375 C25.39949219 15.13039063 25.42398438 15.88578125 25.44921875 16.6640625 C25.46979043 20.58639578 25.27180649 22.5593265 23.1640625 25.9765625 C19.39313941 29.50244365 15.94960536 29.09338878 11 29 C11 33.29 11 37.58 11 42 C7.37 42 3.74 42 0 42 C0 28.14 0 14.28 0 0 Z M11 9 C11 12.63 11 16.26 11 20 C12.32 20 13.64 20 15 20 C15 16.7 15 13.4 15 10 C13.68 9.67 12.36 9.34 11 9 Z " fill="#303030" transform="translate(678,601)"/>
<path d="M0 0 C17 0 17 0 23 3 C25.53977065 6.80965598 25.36753945 9.95835509 25.375 14.375 C25.39949219 15.13039063 25.42398438 15.88578125 25.44921875 16.6640625 C25.46979043 20.58639578 25.27180649 22.5593265 23.1640625 25.9765625 C19.39313941 29.50244365 15.94960536 29.09338878 11 29 C11 33.29 11 37.58 11 42 C7.37 42 3.74 42 0 42 C0 28.14 0 14.28 0 0 Z M11 9 C11 12.63 11 16.26 11 20 C12.32 20 13.64 20 15 20 C15 16.7 15 13.4 15 10 C13.68 9.67 12.36 9.34 11 9 Z " fill="#303030" transform="translate(567,601)"/>
<path d="M0 0 C3.22868746 -0.14584064 6.45652365 -0.23424106 9.6875 -0.3125 C10.59951172 -0.35439453 11.51152344 -0.39628906 12.45117188 -0.43945312 C17.05878856 -0.52322797 19.28200573 -0.52027508 23.10742188 2.25170898 C24.96889266 4.95482774 25.62611071 6.07887172 25.59375 9.28515625 C25.59117188 10.06310547 25.58859375 10.84105469 25.5859375 11.64257812 C25.54339844 12.84043945 25.54339844 12.84043945 25.5 14.0625 C25.50386719 15.26616211 25.50386719 15.26616211 25.5078125 16.49414062 C25.44977995 19.99060192 25.33118143 22.38481123 23.65625 25.49609375 C20.91840112 27.98211219 18.34399897 28.12039343 14.8125 28.0625 C12.9253125 28.0315625 12.9253125 28.0315625 11 28 C11 32.62 11 37.24 11 42 C3.28515625 42.09765625 3.28515625 42.09765625 1 42 C0 41 0 41 -0.11352539 37.12280273 C-0.11336621 35.39305833 -0.10766849 33.66330919 -0.09765625 31.93359375 C-0.0962413 31.02497086 -0.09482635 30.11634796 -0.09336853 29.18019104 C-0.08775193 26.26592779 -0.07519665 23.35174019 -0.0625 20.4375 C-0.05748714 18.46679798 -0.05292386 16.49609476 -0.04882812 14.52539062 C-0.03777711 9.68356441 -0.02050138 4.84179505 0 0 Z M11 8 C11 11.96 11 15.92 11 20 C12.32 19.67 13.64 19.34 15 19 C15 15.7 15 12.4 15 9 C13.68 8.67 12.36 8.34 11 8 Z " fill="#303030" transform="translate(99,542)"/>
<path d="M0 0 C3.02090989 1.76219744 4.47116957 3.28190001 6.25 6.3125 C6.57274585 9.07377008 6.4395517 11.51661246 6.25 14.3125 C2.95 14.3125 -0.35 14.3125 -3.75 14.3125 C-4.08 12.3325 -4.41 10.3525 -4.75 8.3125 C-5.74 8.6425 -6.73 8.9725 -7.75 9.3125 C-7.75 17.2325 -7.75 25.1525 -7.75 33.3125 C-6.265 32.8175 -6.265 32.8175 -4.75 32.3125 C-4.42 30.6625 -4.09 29.0125 -3.75 27.3125 C-0.45 27.3125 2.85 27.3125 6.25 27.3125 C6.69811859 36.12549886 6.69811859 36.12549886 3.25 40.3125 C-0.07584655 42.45482458 -2.84042638 42.58204787 -6.75 42.5625 C-8.296875 42.57023438 -8.296875 42.57023438 -9.875 42.578125 C-14.39419171 42.16059098 -14.39419171 42.16059098 -16.75 40.3125 C-20.40531027 34.2258295 -20.20151919 28.26724403 -20.125 21.3125 C-20.13660156 20.25804687 -20.14820313 19.20359375 -20.16015625 18.1171875 C-20.13753112 12.09890404 -19.76469163 7.57567898 -16.75 2.3125 C-11.48195264 -1.48539461 -6.19120886 -1.54780222 0 0 Z " fill="#303030" transform="translate(353.75,660.6875)"/>
<path d="M0 0 C3.3 0 6.6 0 10 0 C10 4.29 10 8.58 10 13 C11.5675 13.0825 13.135 13.165 14.75 13.25 C18.28072323 13.59458261 19.67946533 13.75764452 22.5625 15.9375 C25.28575297 19.84477601 25.25054428 23.17408189 25.3125 27.8125 C25.34150391 28.52470703 25.37050781 29.23691406 25.40039062 29.97070312 C25.44479723 33.66328316 25.13171026 35.78797175 23.16796875 38.94921875 C16.74135325 45.02844963 9.45240164 42 0 42 C0 28.14 0 14.28 0 0 Z M10 22 C10 25.63 10 29.26 10 33 C11.65 32.67 13.3 32.34 15 32 C15 29.03 15 26.06 15 23 C13.35 22.67 11.7 22.34 10 22 Z " fill="#303030" transform="translate(353,601)"/>
<path d="M0 0 C7.59 0 15.18 0 23 0 C23 2.64 23 5.28 23 8 C19.04 8 15.08 8 11 8 C11 10.64 11 13.28 11 16 C14.3 16 17.6 16 21 16 C21 18.97 21 21.94 21 25 C17.7 25 14.4 25 11 25 C11 27.64 11 30.28 11 33 C14.96 33 18.92 33 23 33 C23 35.97 23 38.94 23 42 C15.41 42 7.82 42 0 42 C0 28.14 0 14.28 0 0 Z " fill="#303030" transform="translate(618,542)"/>
<path d="M0 0 C3.02286884 1.38548155 4.66871425 2.66871425 7 5 C7.57730175 8.32220821 7.74099012 11.63287151 8 15 C4.37 15 0.74 15 -3 15 C-3 13.02 -3 11.04 -3 9 C-4.32 9 -5.64 9 -7 9 C-7 17.25 -7 25.5 -7 34 C-5.68 34 -4.36 34 -3 34 C-3 32.02 -3 30.04 -3 28 C0.63 28 4.26 28 8 28 C7.51039698 37.30245747 7.51039698 37.30245747 5.125 40.5625 C0.22435507 43.87764216 -5.30190742 43.46719354 -11 43 C-14.00855738 41.7720174 -15.36404601 40.98836969 -17.10229492 38.28686523 C-19.07879247 33.25182239 -18.32593725 27.39708953 -18.3125 22.0625 C-18.32861328 20.78697266 -18.34472656 19.51144531 -18.36132812 18.19726562 C-18.36197266 16.96814453 -18.36261719 15.73902344 -18.36328125 14.47265625 C-18.36775269 12.79055054 -18.36775269 12.79055054 -18.37231445 11.07446289 C-17.84247739 6.69922474 -16.22033138 4.07241242 -12.9375 1.1875 C-8.61761626 -0.55883598 -4.5982749 -0.57478436 0 0 Z " fill="#303030" transform="translate(519,541)"/>
<path d="M0 0 C7.59 0 15.18 0 23 0 C23 2.64 23 5.28 23 8 C18.71 8 14.42 8 10 8 C10 10.64 10 13.28 10 16 C13.63 16 17.26 16 21 16 C21 18.97 21 21.94 21 25 C17.37 25 13.74 25 10 25 C10 27.64 10 30.28 10 33 C14.29 33 18.58 33 23 33 C23 35.97 23 38.94 23 42 C15.41 42 7.82 42 0 42 C0 28.14 0 14.28 0 0 Z " fill="#303030" transform="translate(708,542)"/>
<path d="M0 0 C7.59 0 15.18 0 23 0 C23 2.64 23 5.28 23 8 C18.71 8 14.42 8 10 8 C10 10.64 10 13.28 10 16 C13.63 16 17.26 16 21 16 C21.09765625 22.15234375 21.09765625 22.15234375 21 24 C20 25 20 25 17.71484375 25.09765625 C16.34005859 25.08025391 16.34005859 25.08025391 14.9375 25.0625 C14.01839844 25.05347656 13.09929687 25.04445313 12.15234375 25.03515625 C11.44207031 25.02355469 10.73179687 25.01195312 10 25 C10 27.64 10 30.28 10 33 C14.29 33 18.58 33 23 33 C23 35.97 23 38.94 23 42 C15.41 42 7.82 42 0 42 C0 28.14 0 14.28 0 0 Z " fill="#303030" transform="translate(475,542)"/>
<path d="M0 0 C7.59 0 15.18 0 23 0 C23 2.64 23 5.28 23 8 C18.71 8 14.42 8 10 8 C10 10.64 10 13.28 10 16 C13.3 16 16.6 16 20 16 C20 18.97 20 21.94 20 25 C16.7 25 13.4 25 10 25 C10 27.64 10 30.28 10 33 C14.29 33 18.58 33 23 33 C23 35.97 23 38.94 23 42 C15.41 42 7.82 42 0 42 C0 28.14 0 14.28 0 0 Z " fill="#303030" transform="translate(379,542)"/>
<path d="M0 0 C7.59 0 15.18 0 23 0 C23 2.64 23 5.28 23 8 C18.71 8 14.42 8 10 8 C10 10.64 10 13.28 10 16 C13.3 16 16.6 16 20 16 C20 18.97 20 21.94 20 25 C16.7 25 13.4 25 10 25 C10 27.64 10 30.28 10 33 C14.29 33 18.58 33 23 33 C23.09765625 39.15234375 23.09765625 39.15234375 23 41 C22 42 22 42 19.86694336 42.11352539 C18.49227905 42.10567017 18.49227905 42.10567017 17.08984375 42.09765625 C16.199021 42.09515869 15.30819824 42.09266113 14.39038086 42.09008789 C13.25093018 42.08098389 12.11147949 42.07187988 10.9375 42.0625 C7.328125 42.041875 3.71875 42.02125 0 42 C0 28.14 0 14.28 0 0 Z " fill="#303030" transform="translate(561,542)"/>
<path d="M0 0 C3.3422609 2.17155138 4.73085849 3.19257547 6 7 C6.08315752 9.06498892 6.10735878 11.1325789 6.09765625 13.19921875 C6.09443359 14.40771484 6.09121094 15.61621094 6.08789062 16.86132812 C6.07951172 18.12396484 6.07113281 19.38660156 6.0625 20.6875 C6.05798828 21.96173828 6.05347656 23.23597656 6.04882812 24.54882812 C6.03702873 27.69926564 6.02056597 30.84960949 6 34 C2.77131254 34.14584064 -0.45652365 34.23424106 -3.6875 34.3125 C-5.05551758 34.3753418 -5.05551758 34.3753418 -6.45117188 34.43945312 C-11.00505812 34.52225106 -13.28905493 34.49658977 -17.109375 31.828125 C-20.15177936 27.27709037 -19.82783498 23.27541897 -19 18 C-17.6875 15.3125 -17.6875 15.3125 -15 14 C-11.30762732 13.69717231 -7.69478447 13.77066855 -4 14 C-4.66 12.35 -5.32 10.7 -6 9 C-6.38800781 9.49113281 -6.77601563 9.98226562 -7.17578125 10.48828125 C-9.61211696 12.50725753 -11.06930672 12.30898805 -14.1875 12.1875 C-15.08855469 12.16042969 -15.98960937 12.13335938 -16.91796875 12.10546875 C-17.60503906 12.07066406 -18.29210937 12.03585937 -19 12 C-18.76964842 8.08402307 -18.26938523 5.45218234 -16.25 2.0625 C-11.21428291 -1.13324354 -5.80275251 -1.04133554 0 0 Z M-8 21 C-8.33 22.32 -8.66 23.64 -9 25 C-7.68 25 -6.36 25 -5 25 C-5 23.68 -5 22.36 -5 21 C-5.99 21 -6.98 21 -8 21 Z " fill="#303030" transform="translate(514,669)"/>
<path d="M0 0 C1.13050781 -0.03738281 2.26101563 -0.07476563 3.42578125 -0.11328125 C7.34887449 0.39883511 8.93099882 1.52587313 11.6875 4.3125 C12.78256492 7.59769475 12.78710608 10.04913415 12.75 13.5 C12.74097656 14.58667969 12.73195313 15.67335938 12.72265625 16.79296875 C12.71105469 17.62441406 12.69945312 18.45585938 12.6875 19.3125 C7.61273206 20.57555335 2.95953646 21.58286084 -2.3125 21.3125 C-2.3125 22.6325 -2.3125 23.9525 -2.3125 25.3125 C-0.33713255 24.96463292 -0.33713255 24.96463292 1.6875 24.3125 C2.0175 23.6525 2.3475 22.9925 2.6875 22.3125 C5.9875 22.3125 9.2875 22.3125 12.6875 22.3125 C12.32047463 29.6530073 12.32047463 29.6530073 9.54296875 32.546875 C6.15046839 34.64456332 4.14978476 34.8495307 0.1875 34.8125 C-0.9159375 34.8228125 -2.019375 34.833125 -3.15625 34.84375 C-6.93012556 34.20854322 -8.59337339 32.95281135 -11.3125 30.3125 C-13.24057685 26.45634631 -12.58439373 21.74200167 -12.625 17.5 C-12.65400391 16.50162109 -12.68300781 15.50324219 -12.71289062 14.47460938 C-12.77692216 7.08142988 -12.77692216 7.08142988 -10.41796875 3.17578125 C-6.93112118 0.09001819 -4.60165447 0.09901635 0 0 Z M-1.3125 8.3125 C-2.60883621 9.37895115 -2.60883621 9.37895115 -2.375 11.875 C-2.354375 12.679375 -2.33375 13.48375 -2.3125 14.3125 C-0.6625 13.9825 0.9875 13.6525 2.6875 13.3125 C2.42073796 11.32758358 2.42073796 11.32758358 1.6875 9.3125 C0.6975 8.9825 -0.2925 8.6525 -1.3125 8.3125 Z " fill="#303030" transform="translate(612.3125,668.6875)"/>
<path d="M0 0 C7.26 0 14.52 0 22 0 C22 2.97 22 5.94 22 9 C18.04 9 14.08 9 10 9 C10 11.31 10 13.62 10 16 C13.3 16 16.6 16 20 16 C20 18.97 20 21.94 20 25 C16.7 25 13.4 25 10 25 C10 27.97 10 30.94 10 34 C13.96 34 17.92 34 22 34 C22 36.64 22 39.28 22 42 C14.74 42 7.48 42 0 42 C0 28.14 0 14.28 0 0 Z " fill="#303030" transform="translate(652,601)"/>
<path d="M0 0 C3.3 0 6.6 0 10 0 C10 2.97 10 5.94 10 9 C11.01320312 9.03867187 11.01320312 9.03867187 12.046875 9.078125 C19.3990228 9.54560261 19.3990228 9.54560261 22.5625 11.9375 C24.90329388 15.29603035 25.16018105 17.29901238 25.1875 21.375 C25.20167969 22.33148437 25.21585937 23.28796875 25.23046875 24.2734375 C24.98084175 27.22665181 24.81818758 28.65877215 23 31 C16 34 16 34 0 34 C0 22.78 0 11.56 0 0 Z M10 18 C10 20.31 10 22.62 10 25 C11.32 25 12.64 25 14 25 C15.00217064 21.41672247 15.00217064 21.41672247 14 18 C12.68 18 11.36 18 10 18 Z " fill="#303030" transform="translate(233,669)"/>
<path d="M0 0 C7.59 0 15.18 0 23 0 C23 2.64 23 5.28 23 8 C19.04 8 15.08 8 11 8 C11 19.22 11 30.44 11 42 C7.37 42 3.74 42 0 42 C0 28.14 0 14.28 0 0 Z " fill="#303030" transform="translate(156,542)"/>
<path d="M0 0 C8.25 0 16.5 0 25 0 C25 2.97 25 5.94 25 9 C22.69 9 20.38 9 18 9 C18 19.89 18 30.78 18 42 C14.7 42 11.4 42 8 42 C8 31.11 8 20.22 8 9 C5.36 9 2.72 9 0 9 C0 6.03 0 3.06 0 0 Z " fill="#303030" transform="translate(593,601)"/>
<path d="M0 0 C8.25 0 16.5 0 25 0 C25 2.97 25 5.94 25 9 C22.36 9 19.72 9 17 9 C17 19.89 17 30.78 17 42 C13.7 42 10.4 42 7 42 C7 31.11 7 20.22 7 9 C4.69 9 2.38 9 0 9 C0 6.03 0 3.06 0 0 Z " fill="#303030" transform="translate(94,601)"/>
<path d="M0 0 C5.61 0 11.22 0 17 0 C18.07307173 9.13303273 17.93388054 18.02995408 17.5625 27.1875 C17.50912723 28.63083591 17.45638864 30.07419541 17.40429688 31.51757812 C17.27682529 35.01202057 17.1408303 38.50606738 17 42 C13.04 42 9.08 42 5 42 C5 34.41 5 26.82 5 19 C4.34 18.67 3.68 18.34 3 18 C3.66 17.67 4.32 17.34 5 17 C5.46523063 15.10466658 5.46523063 15.10466658 5.625 12.9375 C5.74875 11.638125 5.8725 10.33875 6 9 C4.02 9 2.04 9 0 9 C0 6.03 0 3.06 0 0 Z " fill="#FA111C" transform="translate(488,361)"/>
<path d="M0 0 C7.59 0 15.18 0 23 0 C23 2.97 23 5.94 23 9 C18.71 9 14.42 9 10 9 C10 19.89 10 30.78 10 42 C6.7 42 3.4 42 0 42 C0 28.14 0 14.28 0 0 Z " fill="#303030" transform="translate(442,601)"/>
<path d="M0 0 C0 13.86 0 27.72 0 42 C-3.3 42 -6.6 42 -10 42 C-10 32.1 -10 22.2 -10 12 C-12.31 12.33 -14.62 12.66 -17 13 C-17.68758988 7.92902462 -17.68758988 7.92902462 -17 5 C-12.02378179 -0.58663431 -7.51192631 0 0 0 Z " fill="#303030" transform="translate(331,661)"/>
<path d="M0 0 C7.59 0 15.18 0 23 0 C23 2.97 23 5.94 23 9 C21.02 9 19.04 9 17 9 C17 17.25 17 25.5 17 34 C13.7 34 10.4 34 7 34 C7 25.75 7 17.5 7 9 C4.69 9 2.38 9 0 9 C0 6.03 0 3.06 0 0 Z " fill="#303030" transform="translate(654,669)"/>
<path d="M0 0 C3.3 0 6.6 0 10 0 C10 11.22 10 22.44 10 34 C6.7 34 3.4 34 0 34 C0 22.78 0 11.56 0 0 Z " fill="#303030" transform="translate(262,669)"/>
<path d="M0 0 C5.44239426 2.27328327 9.61208552 5.52769598 12 11 C12.74349204 16.63040323 12.801592 21.33743881 10.3125 26.5 C5.60092314 31.5935966 2.52854179 33.73369496 -4.3125 34.25 C-9.08435545 33.92648438 -12.95173637 32.93212497 -16.515625 29.5703125 C-20.94310497 24.45580978 -21.36406958 20.24580095 -21.26953125 13.72265625 C-20.80101414 8.98995444 -18.81513284 6.54060936 -15.26953125 3.53125 C-10.38526585 0.02159821 -5.94435342 -1.28638713 0 0 Z M-17.375 9.75 C-19.36617451 13.73234901 -19.86437141 16.63448785 -19 21 C-16.76345106 25.30742759 -14.26546009 28.64038378 -10 31 C-5.36718867 31.83318777 -1.01506501 32.10953846 3.19921875 29.7890625 C7.65692676 26.10701437 9.8101647 22.9616314 10.375 17.125 C10.24562158 12.77465059 8.87112239 10.3244575 6 7 C1.84468544 3.32786155 -1.41873732 2.34464222 -6.82421875 2.6171875 C-11.6379151 3.46412151 -14.28369276 6.17059161 -17.375 9.75 Z " fill="#F8161B" transform="translate(538,135)"/>
<path d="M0 0 C3.63 0 7.26 0 11 0 C16.06303061 9.26164137 16.06303061 9.26164137 15.78125 12.5625 C14.585249 16.29402312 12.82194364 19.53242985 11 23 C7.37 23 3.74 23 0 23 C2 18 2 18 3.9375 14.875 C5.19960385 12.0847606 5.02974184 11.09338432 4.078125 8.10546875 C2.81402986 5.33937293 1.47586904 2.65848722 0 0 Z " fill="#303030" transform="translate(375,675)"/>
<path d="M0 0 C3.63 0 7.26 0 11 0 C16.06303061 9.26164137 16.06303061 9.26164137 15.78125 12.5625 C14.585249 16.29402312 12.82194364 19.53242985 11 23 C7.37 23 3.74 23 0 23 C2 18 2 18 3.9375 14.875 C5.19960385 12.0847606 5.02974184 11.09338432 4.078125 8.10546875 C2.81402986 5.33937293 1.47586904 2.65848722 0 0 Z " fill="#303030" transform="translate(361,675)"/>
<path d="M0 0 C3.63 0 7.26 0 11 0 C10.58105469 0.76183594 10.16210938 1.52367187 9.73046875 2.30859375 C6.54135332 8.27441403 6.54135332 8.27441403 6.78125 14.73046875 C8.0737955 16.9313865 9.49878883 18.93987637 11 21 C11 21.66 11 22.32 11 23 C7.37 23 3.74 23 0 23 C-5.06303061 13.73835863 -5.06303061 13.73835863 -4.78125 10.4375 C-3.585249 6.70597688 -1.82194364 3.46757015 0 0 Z " fill="#303030" transform="translate(304,675)"/>
<path d="M0 0 C3.63 0 7.26 0 11 0 C9 5 9 5 7.0625 8.25 C5.64935968 11.80339751 5.64935968 11.80339751 6.921875 14.37890625 C7.8338277 15.97482348 8.7928163 17.54495083 9.80078125 19.08203125 C11 21 11 21 11 23 C7.55143821 23.48212903 4.42901363 23.68685135 1 23 C-2.68005975 19.60873418 -4.56327648 14.93949358 -5 10 C-3.67585148 6.44297359 -1.82809452 3.34407534 0 0 Z " fill="#303030" transform="translate(290,675)"/>
<path d="M0 0 C0.33 5.61 0.66 11.22 1 17 C1.99 17.33 2.98 17.66 4 18 C4 15.69 4 13.38 4 11 C5.66611905 10.957279 7.33382885 10.95936168 9 11 C10 12 10 12 10.0625 14.5625 C10.041875 15.366875 10.02125 16.17125 10 17 C11.32 16.67 12.64 16.34 14 16 C14.33 17.65 14.66 19.3 15 21 C10.52226307 23.98515795 6.24406002 23.84841138 1 23 C-3.28832699 20.66229254 -6.1602309 17.52600474 -8 13 C-8.47767757 9.40336887 -8.31682207 6.02967171 -7.25 2.5625 C-5.24204944 0.05256181 -3.07755964 0 0 0 Z " fill="#FFDC00" transform="translate(527,143)"/>
<path d="M0 0 C3.63 0 7.26 0 11 0 C10.24983072 3.75084639 9.86396529 5.64514273 8.15234375 8.76953125 C7.79462891 9.43017578 7.43691406 10.09082031 7.06835938 10.77148438 C6.69517578 11.44501953 6.32199219 12.11855469 5.9375 12.8125 C5.37192383 13.85180664 5.37192383 13.85180664 4.79492188 14.91210938 C3.86916148 16.61128985 2.93537688 18.30609425 2 20 C-0.97 20 -3.94 20 -7 20 C-5.07169989 13.13408294 -2.72978855 6.58914477 0 0 Z " fill="#D60E16" transform="translate(569,360)"/>
<path d="M0 0 C3.63 0 7.26 0 11 0 C10.45318976 5.00600922 8.75859667 8.97181067 6.4375 13.375 C6.10814453 14.01566406 5.77878906 14.65632813 5.43945312 15.31640625 C4.63360518 16.88138632 3.81781507 18.44124021 3 20 C0.03 20 -2.94 20 -6 20 C-5.50104522 12.84831485 -2.68436185 6.58708719 0 0 Z " fill="#D60E16" transform="translate(555,360)"/>
<path d="M0 0 C2.64 0 5.28 0 8 0 C6.02 5.94 4.04 11.88 2 18 C-1.3 18 -4.6 18 -8 18 C-6.65150163 13.64029169 -4.95092154 9.68658562 -2.875 5.625 C-2.33617187 4.56539063 -1.79734375 3.50578125 -1.2421875 2.4140625 C-0.83226562 1.61742187 -0.42234375 0.82078125 0 0 Z " fill="#F9111C" transform="translate(460,361)"/>
<path d="M0 0 C6.6 0 13.2 0 20 0 C20 2.64 20 5.28 20 8 C13.4 8 6.8 8 0 8 C0 5.36 0 2.72 0 0 Z " fill="#303030" transform="translate(403,682)"/>
<path d="M0 0 C2.31 0 4.62 0 7 0 C5.75738593 6.18383236 4.07970959 12.044468 2 18 C-1.3 18 -4.6 18 -8 18 C-6.02925012 11.4654083 -3.50144122 5.85418828 0 0 Z " fill="#F9101C" transform="translate(474,361)"/>
<path d="M0 0 C1.60875 -0.020625 3.2175 -0.04125 4.875 -0.0625 C5.77992188 -0.07410156 6.68484375 -0.08570313 7.6171875 -0.09765625 C10 0 10 0 12 1 C12 6 12 11 12 16 C11.01 16 10.02 16 9 16 C8.67 14.35 8.34 12.7 8 11 C6.35 10.67 4.7 10.34 3 10 C3 12.31 3 14.62 3 17 C2.01 17 1.02 17 0 17 C0 11.39 0 5.78 0 0 Z " fill="#FB3911" transform="translate(528,144)"/>
<path d="M0 0 C0.33 1.32 0.66 2.64 1 4 C2.32 4.33 3.64 4.66 5 5 C4.67 6.32 4.34 7.64 4 9 C1.89679937 9.50404808 -0.20759791 10.00310508 -2.3125 10.5 C-3.48425781 10.7784375 -4.65601563 11.056875 -5.86328125 11.34375 C-9 12 -9 12 -12 12 C-12.36794425 4.5184669 -12.36794425 4.5184669 -10.625 2.0625 C-7.02274515 -0.29282048 -4.2713208 -0.07909853 0 0 Z " fill="#D5BA00" transform="translate(671,207)"/>
<path d="M0 0 C5 0 5 0 7.3125 1.5 C9.37042295 4.54877474 9.5823831 6.47733299 9.38671875 10.09375 C9 12 9 12 7.3125 14.5 C5 16 5 16 0 16 C0 10.72 0 5.44 0 0 Z " fill="#FFD900" transform="translate(237,372)"/>
<path d="M0 0 C0 5.28 0 10.56 0 16 C-6 15 -6 15 -7.875 13.3125 C-9.36633241 10.24698338 -9.48231822 8.37622756 -9 5 C-6.21400537 0.25349062 -5.77296803 0 0 0 Z " fill="#FFD400" transform="translate(227,372)"/>
<path d="M0 0 C6.39075249 -0.36174071 6.39075249 -0.36174071 9 1.1875 C10 3 10 3 9.875 5.5625 C9 8 9 8 6 10 C2.8125 10.125 2.8125 10.125 0 10 C0 6.7 0 3.4 0 0 Z " fill="#FFC900" transform="translate(317,370)"/>
<path d="M0 0 C1.74949772 2.62424658 2.65389981 4.55727216 3.625 7.5 C3.88539063 8.2734375 4.14578125 9.046875 4.4140625 9.84375 C5 12 5 12 5 15 C2.03 15 -0.94 15 -4 15 C-3.43179252 9.54520815 -2.05362055 5.08940744 0 0 Z " fill="#FFD000" transform="translate(414,371)"/>
<path d="M0 0 C2.31 0 4.62 0 7 0 C7 0.33 7 0.66 7 1 C5.02 1 3.04 1 1 1 C1.33 3.31 1.66 5.62 2 8 C3.32 8.33 4.64 8.66 6 9 C5.3709375 9.30292969 4.741875 9.60585937 4.09375 9.91796875 C-1.48909647 12.65053668 -6.80369706 15.58901902 -12 19 C-12.33 18.01 -12.66 17.02 -13 16 C-14.98 16 -16.96 16 -19 16 C-19 15.67 -19 15.34 -19 15 C-17.78763672 14.85304687 -17.78763672 14.85304687 -16.55078125 14.703125 C-8.29246995 13.83694956 -8.29246995 13.83694956 -2 9 C-1.04126568 6.03151246 -0.44167774 3.08515194 0 0 Z " fill="#C0A100" transform="translate(339,134)"/>
<path d="M0 0 C5.28 0 10.56 0 16 0 C17.07307173 9.13303273 16.93388054 18.02995408 16.5625 27.1875 C16.50912723 28.63083591 16.45638864 30.07419541 16.40429688 31.51757812 C16.27682529 35.01202057 16.1408303 38.50606738 16 42 C15.67 42 15.34 42 15 42 C14.67 28.47 14.34 14.94 14 1 C9.38 1 4.76 1 0 1 C0 0.67 0 0.34 0 0 Z " fill="#D81116" transform="translate(489,361)"/>
<path d="M0 0 C0.66 0 1.32 0 2 0 C2 2.31 2 4.62 2 7 C-6.25 7 -14.5 7 -23 7 C-23 5.02 -23 3.04 -23 1 C-22.67 2.32 -22.34 3.64 -22 5 C-14.74 5 -7.48 5 0 5 C0 3.35 0 1.7 0 0 Z " fill="#FA2F14" transform="translate(439,223)"/>
<path d="M0 0 C0 7.92 0 15.84 0 24 C2.64 24 5.28 24 8 24 C8 24.33 8 24.66 8 25 C4.7 25 1.4 25 -2 25 C-2 17.41 -2 9.82 -2 2 C-2.66 1.67 -3.32 1.34 -4 1 C-2 0 -2 0 0 0 Z " fill="#B30F10" transform="translate(495,378)"/>
<path d="M0 0 C0.33 0 0.66 0 1 0 C1.92371706 7.54368932 1.92371706 7.54368932 -0.30078125 11.05078125 C-1.36047209 12.23186865 -2.45581233 13.38228441 -3.58984375 14.4921875 C-5.25119679 16.0585135 -5.25119679 16.0585135 -6 19 C-4.68 19 -3.36 19 -2 19 C-2.33 20.32 -2.66 21.64 -3 23 C-3 22.34 -3 21.68 -3 21 C-4.98 21 -6.96 21 -9 21 C-8.9375 17.875 -8.9375 17.875 -8 14 C-6.41015625 12.48046875 -6.41015625 12.48046875 -4.5 11.0625 C-2.26926799 9.37918689 -1.17029041 8.53617151 -0.31640625 5.84765625 C-0.00034602 3.39744463 -0.00034602 3.39744463 0 0 Z " fill="#B69F00" transform="translate(196,355)"/>
<path d="M0 0 C0.99 0.33 1.98 0.66 3 1 C3.99 0.67 4.98 0.34 6 0 C8.00875442 0.27571139 10.01178687 0.60235737 12 1 C12 1.33 12 1.66 12 2 C11.071875 2.268125 10.14375 2.53625 9.1875 2.8125 C6.05432846 3.7170579 6.05432846 3.7170579 4.5 5.5625 C2.27674907 7.69311548 -0.01958067 7.6688423 -3 8 C-2.25 2.25 -2.25 2.25 0 0 Z " fill="#C5AC00" transform="translate(345,469)"/>
<path d="M0 0 C0.99 0 1.98 0 3 0 C3 5.28 3 10.56 3 16 C1.35 15.67 -0.3 15.34 -2 15 C-1.01 14.67 -0.02 14.34 1 14 C1 10.04 1 6.08 1 2 C0.34 1.67 -0.32 1.34 -1 1 C-0.67 0.67 -0.34 0.34 0 0 Z " fill="#FFE700" transform="translate(224,372)"/>
<path d="M0 0 C0.33 0 0.66 0 1 0 C1 7.92 1 15.84 1 24 C0.67 24 0.34 24 0 24 C-0.33 18.06 -0.66 12.12 -1 6 C-1.99 7.485 -1.99 7.485 -3 9 C-3.66 8.67 -4.32 8.34 -5 8 C-4.19185349 6.66402348 -3.37836819 5.331275 -2.5625 4 C-2.11003906 3.2575 -1.65757812 2.515 -1.19140625 1.75 C-0.79824219 1.1725 -0.40507812 0.595 0 0 Z " fill="#FFCD00" transform="translate(288,378)"/>
<path d="M0 0 C2.64 0 5.28 0 8 0 C8 0.33 8 0.66 8 1 C6.35 1.33 4.7 1.66 3 2 C2.34843591 6.72383963 1.88049363 11.21974517 2 16 C1.34 16 0.68 16 0 16 C0 10.72 0 5.44 0 0 Z " fill="#F50320" transform="translate(528,144)"/>
<path d="M0 0 C2.12508244 3.18762365 2.5020163 5.26512223 3 9 C2.01 9.66 1.02 10.32 0 11 C-0.73606499 14.56769552 -0.73606499 14.56769552 -1 18 C-1.33 18 -1.66 18 -2 18 C-2.23268915 11.71739294 -1.40454548 6.11980533 0 0 Z " fill="#FFB901" transform="translate(353,379)"/>
<path d="M0 0 C2.45331002 3.67996503 2.39507893 5.65413172 2 10 C1.01 10.66 0.02 11.32 -1 12 C-2.11658501 7.31034294 -1.80619523 4.46236469 0 0 Z " fill="#FFC600" transform="translate(374,379)"/>
<path d="M0 0 C1.17949219 0.19464844 2.35898437 0.38929688 3.57421875 0.58984375 C4.92966797 0.82380859 4.92966797 0.82380859 6.3125 1.0625 C6.3125 1.3925 6.3125 1.7225 6.3125 2.0625 C1.0325 2.0625 -4.2475 2.0625 -9.6875 2.0625 C-9.6875 1.4025 -9.6875 0.7425 -9.6875 0.0625 C-6.00942463 -1.16352512 -3.80506073 -0.64045577 0 0 Z " fill="#AA120E" transform="translate(533.6875,358.9375)"/>
<path d="M0 0 C1.98 0 3.96 0 6 0 C6 1.65 6 3.3 6 5 C4.02 5 2.04 5 0 5 C0 3.35 0 1.7 0 0 Z " fill="#FFE000" transform="translate(531,146)"/>
<path d="M0 0 C0.33 0 0.66 0 1 0 C1.12375 0.9075 1.2475 1.815 1.375 2.75 C1.81759516 5.90603635 1.81759516 5.90603635 3.125 8.125 C4.22584094 10.48394488 3.85712696 11.60004452 3 14 C2.34 13.01 1.68 12.02 1 11 C0.67 11.66 0.34 12.32 0 13 C-0.66 13 -1.32 13 -2 13 C-1.34 8.71 -0.68 4.42 0 0 Z " fill="#FFBB00" transform="translate(338,371)"/>
<path d="M0 0 C2.77135062 1.38567531 3.56096091 3.56895168 5 6.2109375 C5.91907273 7.85521605 6.95510816 9.43266224 8 11 C4.6265771 9.55424733 2.38404854 7.7950914 0 5 C-0.8125 2.8125 -0.8125 2.8125 -1 1 C-0.67 0.67 -0.34 0.34 0 0 Z " fill="#B79F00" transform="translate(585,104)"/>
<path d="M0 0 C0 3 0 3 -1.75 5.04296875 C-2.4925 5.75066406 -3.235 6.45835937 -4 7.1875 C-4.7425 7.90292969 -5.485 8.61835938 -6.25 9.35546875 C-6.8275 9.89816406 -7.405 10.44085938 -8 11 C-8 6.92453987 -6.44695552 5.19463638 -4 2 C-1.75 0.625 -1.75 0.625 0 0 Z " fill="#A4160E" transform="translate(522,360)"/>
<path d="M0 0 C0 1.98 0 3.96 0 6 C-0.99 6 -1.98 6 -3 6 C-3 4.35 -3 2.7 -3 1 C-4.98 1 -6.96 1 -9 1 C-9 0.67 -9 0.34 -9 0 C-5.62182575 -0.84454356 -3.32534757 -1.10844919 0 0 Z " fill="#F91D18" transform="translate(540,145)"/>
<path d="M0 0 C2.97 0.495 2.97 0.495 6 1 C6 1.99 6 2.98 6 4 C4.02 4.66 2.04 5.32 0 6 C0 4.02 0 2.04 0 0 Z " fill="#BAA100" transform="translate(562,338)"/>
<path d="M0 0 C1.485 0.99 1.485 0.99 3 2 C3.1875 5.125 3.1875 5.125 3 8 C2.01 8 1.02 8 0 8 C0 5.36 0 2.72 0 0 Z " fill="#F80C1D" transform="translate(537,152)"/>
<path d="M0 0 C1.30048841 2.60097682 1.56471422 5.13955062 2 8 C0.68 8.33 -0.64 8.66 -2 9 C-2.25 3.375 -2.25 3.375 0 0 Z " fill="#9D8800" transform="translate(357,475)"/>
<path d="M0 0 C1.32 0.33 2.64 0.66 4 1 C3.67 2.98 3.34 4.96 3 7 C2.34 7 1.68 7 1 7 C0.67 4.69 0.34 2.38 0 0 Z " fill="#FFC300" transform="translate(362,378)"/>
<path d="M0 0 C0.66 0.33 1.32 0.66 2 1 C0.02 3.31 -1.96 5.62 -4 8 C-4.33 7.01 -4.66 6.02 -5 5 C-3.35 3.35 -1.7 1.7 0 0 Z " fill="#FFCC00" transform="translate(337,177)"/>
<path d="M0 0 C0.66 0.33 1.32 0.66 2 1 C1.125 5.875 1.125 5.875 0 7 C-1.66617115 7.04063832 -3.33388095 7.042721 -5 7 C-4.360625 6.5875 -3.72125 6.175 -3.0625 5.75 C-0.79009069 3.82189513 -0.39803561 2.88575819 0 0 Z " fill="#AF9800" transform="translate(243,426)"/>
</svg>
